<svg xmlns="http://www.w3.org/2000/svg" viewBox="0 0 32 32"><title>b add 4</title><g class="nc-icon-wrapper" stroke-linecap="square" stroke-linejoin="miter" stroke-width="2" fill="#3c54a5" stroke="#3c54a5"><line data-color="color-2" fill="none" stroke-miterlimit="10" x1="16" y1="2" x2="16" y2="10"/> <line data-color="color-2" fill="none" stroke-miterlimit="10" x1="12" y1="6" x2="20" y2="6"/> <circle fill="none" stroke="#3c54a5" stroke-miterlimit="10" cx="25" cy="18" r="3"/> <circle fill="none" stroke="#3c54a5" stroke-miterlimit="10" cx="7" cy="18" r="3"/> <path fill="none" stroke="#3c54a5" stroke-miterlimit="10" d="M13,30v-2.983 c0-0.71-0.372-1.363-0.983-1.725C11.044,24.717,9.358,24,7,24c-2.388,0-4.064,0.713-5.026,1.288C1.368,25.65,1,26.301,1,27.007V30 H13z"/> <path fill="none" stroke="#3c54a5" stroke-miterlimit="10" d="M31,30v-2.983 c0-0.71-0.372-1.363-0.983-1.725C29.044,24.717,27.358,24,25,24c-2.388,0-4.064,0.713-5.026,1.288C19.368,25.65,19,26.301,19,27.007 V30H31z"/></g></svg>