<svg xmlns="http://www.w3.org/2000/svg" viewBox="0 0 64 64"><title>b security 4</title><g class="nc-icon-wrapper" stroke-linecap="square" stroke-linejoin="miter" stroke-width="4" fill="#3c54a5" stroke="#3c54a5"><circle data-color="color-2" data-stroke="none" cx="32" cy="21" r="2" stroke-linejoin="miter" stroke-linecap="square" stroke="none"/> <rect data-color="color-2" x="22" y="15" fill="none" stroke-miterlimit="10" width="20" height="13"/> <path data-color="color-2" fill="none" stroke-miterlimit="10" d="M26,15V8 c0-3.314,2.686-6,6-6h0c3.314,0,6,2.686,6,6v7"/> <circle fill="none" stroke="#3c54a5" stroke-miterlimit="10" cx="50" cy="38" r="6"/> <circle fill="none" stroke="#3c54a5" stroke-miterlimit="10" cx="14" cy="38" r="6"/> <path fill="none" stroke="#3c54a5" stroke-miterlimit="10" d="M26,62v-5.965 c0-1.42-0.745-2.726-1.967-3.449C22.088,51.435,18.716,50,14,50c-4.777,0-8.127,1.426-10.052,2.575C2.736,53.299,2,54.601,2,56.013 V62H26z"/> <path fill="none" stroke="#3c54a5" stroke-miterlimit="10" d="M62,62v-5.965 c0-1.42-0.745-2.726-1.967-3.449C58.088,51.435,54.716,50,50,50c-4.777,0-8.127,1.426-10.052,2.575 C38.736,53.299,38,54.601,38,56.013V62H62z"/></g></svg>