<svg xmlns="http://www.w3.org/2000/svg" width="60.357" height="68.128" viewBox="0 0 60.357 68.128">
  <g id="Group_92" data-name="Group 92" transform="translate(-1022.278 -557.989)">
    <path id="Path_214" data-name="Path 214" d="M652.217,568.913v25.794c0,3.06-.537,5.034-2.8,6.2l-24.283,14.09c-2.124,1.224-3.847,1.4-6.433-.1l-23.1-13.378c-2.511-1.249-3.785-2.573-3.747-5.946l.05-27.53c0-2.711.9-4.147,3.423-5.608l23.57-13.64c2.161-1.249,3.91-1.349,6.533.162l22.834,13.315c3.048,1.736,3.91,2.948,3.947,6.645Z" transform="translate(430.418 10.153)" fill="#27af54" fill-rule="evenodd"/>
    <g id="Camada_x0020_1" transform="translate(1032.066 574.757)">
      <g id="_1841966643104" transform="translate(-0.002 -0.001)">
        <path id="Path_218" data-name="Path 218" d="M28.859,24.455c1.574.279,9.2,1.968,10.054,2.447a5.016,5.016,0,0,1-6.125,3.757c-3.127-.708-4.2-3.213-3.929-6.2Zm10.827-4.73c2.948-.8,3.735,3.671,1.066,4.265A2.2,2.2,0,0,1,39.685,19.725Zm-10.1-2.276c2.741-1.03,3.828,3.227,1.41,4.086a2.26,2.26,0,0,1-2.862-1.209c-.58-1.531.143-2.39,1.453-2.877ZM26.54,10.881c-1.145.465-1.209,2.447-1.753,4.666-1.438,5.932-3.628,12.795,1.5,17.274,1.259,1.095,3.621,4.68,4.945,4.787,1.2.1,8.315-2.877,9.31-3.556,3.979-2.683,4.608-7.449,5.961-13.188.336-1.445,1.4-3.95.458-5.152-1.61-2.047-17.038-6.211-20.423-4.83Z" transform="translate(-6.56 -2.015)" fill="#fff" fill-rule="evenodd"/>
        <path id="Path_219" data-name="Path 219" d="M7.392,11.649c2.862-1.317,4.3,2.841,1.682,3.936A2.142,2.142,0,1,1,7.392,11.649Zm7.084,15.807c-.687-2.354-1.131-3.234-.98-6l-2.369.837a5.307,5.307,0,0,1,1.188-5.438c2.347-2.3,2,.343,3.041-4.265.322-1.41.88-4.616,1.574-5.517,1.338-1.739,2.641-1.9,5.41-1.9C21.26,1.774,20.995-.144,18.955.007a38.292,38.292,0,0,0-7.278,1.4C9.188,2.132.694,5.524.05,7.2c-.386,1.009,1.524,5.46,1.939,6.633C3.663,18.6,4.286,22.5,8.014,25.167a16.39,16.39,0,0,0,6.462,2.29Z" transform="translate(0.002 1.001)" fill="#fff" fill-rule="evenodd"/>
      </g>
    </g>
  </g>
</svg>
