<svg xmlns="http://www.w3.org/2000/svg" width="60.369" height="68.128" viewBox="0 0 60.369 68.128">
  <g id="Group_93" data-name="Group 93" transform="translate(-935.666 -557.989)">
    <g id="Group_330" data-name="Group 330">
      <path id="Path_1648" data-name="Path 1648" d="M582.889,568.913v25.794c0,3.06-.537,5.034-2.8,6.2l-24.282,14.09c-2.123,1.224-3.847,1.4-6.433-.1l-23.1-13.378c-2.523-1.249-3.785-2.573-3.76-5.946l.063-27.53c0-2.711.9-4.147,3.422-5.608l23.57-13.64c2.161-1.249,3.91-1.349,6.52.162l22.846,13.315c3.048,1.736,3.91,2.948,3.947,6.645Z" transform="translate(413.146 10.153)" fill="#ffb728" fill-rule="evenodd"/>
      <path id="Path_1649" data-name="Path 1649" d="M.053,28.123a1.434,1.434,0,0,0,.779.9c.6.24,10.552.12,11.511.12,6.535,0,13.55.06,20.025,0a.858.858,0,0,0,.66-.18c.839-.42.66-1.079.66-1.739.06-3.3,0-6.655.06-9.952,0-1.2,0-2.158-1.379-1.619l-3.657,1.379a10,10,0,0,1-1.2.48l-7.135,2.818c-.36.12-.839.36-1.2.48-1.619.54-1.139.719-2.638.24-1.739-.54-4.2-1.619-6-2.218-.9-.3-1.619-.6-2.518-.9-1.259-.48-6.895-2.638-7.434-2.518-.839.24-.54,1.859-.54,2.7V28.123ZM15.222,2.1c.54-.06,3.357-.12,4.077.3.839.54,1.559,2.038-.9,2.038-.839,0-3.717.12-4.257-.18a.768.768,0,0,1-.3-1.319.532.532,0,0,1,.24-.3A2.25,2.25,0,0,1,15.222,2.1ZM4.31,4.261c-1.2.42-3.058-.3-3.9.54-.48.48-.36,1.139-.36,1.919V8.937c0,3.837-.36,3.837,1.919,4.736l4.916,1.739c1.739.54,3.957,1.5,5.756,2.1l.719.3c2.038.66,3.477,1.619,5.336,1.079l1.559-.6c.3-.12.54-.24.779-.36l.839-.3c.54-.18.959-.42,1.559-.6l6.415-2.518c.36-.18,2.7-1.019,3.118-1.319a1.683,1.683,0,0,0,.779-1.559c-.06-1.2.06-6-.18-6.475-.48-1.079-2.158-.66-3.477-.839-.06-.719-.12-.959-.54-1.2a4.713,4.713,0,0,0-2.878,0c-.48.42-.42.48-.54,1.139a5.648,5.648,0,0,1-3,0,1.635,1.635,0,0,1-.779-.9,3.162,3.162,0,0,1-.18-.719C21.4.3,19.239,0,17.2,0a11.211,11.211,0,0,0-3.178.24c-3.6.9-1.739,4.137-4.257,4.2-1.5,0-1.5,0-1.559-.54a.76.76,0,0,0-.06-.36c-.48-1.019-3-.66-3.357-.42-.42.24-.36.6-.48,1.139Z" transform="translate(948.507 576.277)" fill="#fff" fill-rule="evenodd"/>
    </g>
  </g>
</svg>
