<svg xmlns="http://www.w3.org/2000/svg" width="60.369" height="68.128" viewBox="0 0 60.369 68.128">
  <g id="Group_65" data-name="Group 65" transform="translate(-842.747 -557.989)">
    <g id="Group_94" data-name="Group 94">
      <g id="Group_403" data-name="Group 403">
        <g id="Group_41" data-name="Group 41" transform="translate(842.747 557.989)">
          <path id="Path_42" data-name="Path 42" d="M512.809,568.913v25.794c0,3.06-.537,5.034-2.81,6.2l-24.282,14.09c-2.124,1.224-3.835,1.4-6.42-.1l-23.1-13.378c-2.523-1.249-3.785-2.573-3.76-5.946l.05-27.53c0-2.711.9-4.147,3.422-5.608L479.5,548.79c2.148-1.249,3.9-1.349,6.52.162l22.846,13.315c3.035,1.736,3.9,2.948,3.947,6.645Z" transform="translate(-452.44 -547.836)" fill="#ee3134" fill-rule="evenodd"/>
        </g>
        <g id="_1593275464320" transform="translate(853.191 576.777)">
          <path id="Path_54" data-name="Path 54" d="M620.689,565.57c-.542,0-.371.1-.742.243a.712.712,0,0,0-.3.171c-.371.371-.086,0-.657.314l-.657.371a3.968,3.968,0,0,0-.642.343c-.2.171-.129.057-.371.143-.129.057-.186.128-.314.2-.171.071-.214.029-.343.171s-.014.157-.271.185c-.285.043-.171-.029-.385.143-.242.171-.514.086-.6.428-.557,0-.357.071-.657.271-.114.086-.228.057-.357.114-.242.1-.043.128-.3.214-.171.057-.214,0-.357.114-.114.086-.1.143-.243.214a4.354,4.354,0,0,0-.7.286l-.342.214c-.071.071,0,.014-.071.071a.34.34,0,0,1-.157.086,1.018,1.018,0,0,0-.371.086c-.157.1-.071.114-.314.2l-.3.171c-.2.185-.442.114-.628.314s-.029.1-.328.186c-.228.057-.143.086-.3.171s-.186.014-.343.114c-.114.057-.157.157-.257.214-.129.086-.257.071-.4.157l-.114.071c-.157.086-.357.1-.485.228-.3.285-.328.157-.642.328l-.614.328c-.129.086-.086.1-.3.157-.485.143-.285.257-.642.342l-.3.157c-.257.214-.557-.043-.571.428-.428,0-.542.157-.913.3-.229.086-.214.157-.357.257-.129.071-.243.043-.442.157a5.156,5.156,0,0,1-.771.442c-.257.1-.186.029-.386.228-.257.271-.257.257-.257.614,0,.557.129.443.428.7.214.171.114.086.385.171s.086.171.328.286c.157.057.314.028.457.143a1.413,1.413,0,0,0,.328.186c.214.1.185.143.328.228a3.062,3.062,0,0,0,.486.129c.143.043.171.143.314.243a1.928,1.928,0,0,0,.385.185.84.84,0,0,0,.4.157c.343.086.114.129.343.271.157.1.357.057.5.186.314.271.243.014.614.371.1.086-.014.043.186.1a1.138,1.138,0,0,0,.314.014c.2.385.257.2.557.414.271.2.457.1.671.314.143.143.086.1.286.186a3.805,3.805,0,0,1,1.013.528c.143.1.371.128.671.314a2.773,2.773,0,0,0,.671.357c.471.129.243.2.642.343s.271.257.771.257c.243.485.357.243.685.485.129.086,0,.029.186.086.286.086.286.243.557.343a2.839,2.839,0,0,1,.414.128l.385.229c.328.171.428.314.857.314.071.171,0,.2.186.286.143.057.285.043.414.143.171.143.243.1.443.157.257.1.1.257.428.328s.143-.028.357.157c.171.128.171.057.328.143a1.669,1.669,0,0,0,.285.214,2.973,2.973,0,0,1,.942.471c.228.157.471.143.714.271.186.1.157.171.271.242s.2.057.343.129c.557.228-.057.171,1.213.171.4,0,.371-.086.628-.214.157-.086.2-.029.314-.1s.157-.171.214-.214c.129-.1.357-.086.614-.228.271-.186.314-.1.485-.414.557,0,.956-.442,1.327-.585a1.927,1.927,0,0,0,.343-.114c.314-.171.114-.171.6-.328l.657-.328c.128-.129.014-.157.257-.214s.186.057.371-.1c.257-.2.257-.114.485-.257.357-.2-.2-.1.471-.242a.406.406,0,0,0,.3-.157c.143-.157.285-.157.471-.271l.114-.071a3.079,3.079,0,0,1,.385-.143c.185-.086.129-.114.243-.214l.157-.086c.086-.029.157-.029.228-.057a1.49,1.49,0,0,0,.3-.157,1.824,1.824,0,0,0,.514-.286c.128-.129.314-.1.471-.171s.129-.129.271-.214a1.923,1.923,0,0,0,.328-.129c.457-.285.386-.1.628-.357.014,0,.014-.014.028-.014a.05.05,0,0,1,.014-.029l.086-.057c.186-.114.2-.043.471-.228.243-.157.528-.029.571-.414.414,0,.257-.071.514-.143-.186-.386-.228-.357-.757-.371a7.8,7.8,0,0,0-2.013-.243c-.571.014-.985-.328-1.955-.328a5.347,5.347,0,0,1-1.1-.071,2.166,2.166,0,0,0-.913-.2,8.236,8.236,0,0,1-1.071-.1,5.8,5.8,0,0,0-.942-.185c-.4-.014-.671-.043-1.113-.043a4.985,4.985,0,0,1-.514-.043c-.428-.029-.171-.014-.428-.143-.528-.243-1.5-.043-2.041-.243a5.406,5.406,0,0,0-1-.171c-.314-.057-.086-.043-.343-.228-.428-.3-.357-.457-.585-.657l-.143-.143a4.928,4.928,0,0,1-.043-1.228c0-.228.129-.271.243-.4a.659.659,0,0,0,.128-.2l.328-.343c.086-.043.157-.029.257-.071.528-.228-.442-.3,1.427-.3.471,0,.571.214.9.271.571.1,1.113.043,1.656.128a5.023,5.023,0,0,0,1.6.214,1.816,1.816,0,0,1,.985.186,9.707,9.707,0,0,0,2.241.186c.228.029.228.1.457.157.671.157,1.17.029,2.1.286a6.775,6.775,0,0,0,1.7.114,9.885,9.885,0,0,0,2.055.328,6.765,6.765,0,0,1,.8.1c.257.028.043,0,.243.086.271.129.442,0,.657.228.171.157.371.228.485.457.1.2.028.286.3.3a3.966,3.966,0,0,0,.086.614,1.153,1.153,0,0,0,.514-.043l.357-.214a1.578,1.578,0,0,0,.343-.228c.171-.114.243-.057.443-.157s.186-.142.343-.228c.557-.328.856-.214.856-1.1,0-.257-.157-.257-.257-.428-.129-.2-.228-.114-.457-.257-.443-.3-.328-.043-.585-.342-.114-.143-.086-.114-.314-.157-.485-.1-.086-.143-.614-.328-.314-.1-.214-.171-.642-.285-.285-.071-.257-.243-.585-.357a2.95,2.95,0,0,1-.871-.442.732.732,0,0,0-.385-.171c-.328-.071-.171-.171-.614-.314-.314-.1-.086-.057-.286-.185-.114-.086-.228-.057-.357-.1-.214-.086-.086-.114-.243-.228a2.262,2.262,0,0,0-.328-.143,2.138,2.138,0,0,0-.314-.157c-.257-.071-.157.071-.328-.128-.271-.343-.286-.143-.6-.343a4.977,4.977,0,0,1-.614-.314,5.106,5.106,0,0,0-.642-.3l-.614-.357c-.471-.285-.371.029-.628-.3-.228-.286-.171-.028-.6-.342-.2-.157-.157-.043-.371-.1s-.1-.129-.228-.243c-.1-.1-.214-.086-.343-.114-.314-.086-.086-.086-.285-.186-.157-.086-.186-.014-.357-.114-.128-.086-.1-.143-.257-.214-.114-.057-.243-.057-.357-.114l-.885-.514c-.2-.071-.385-.014-.514-.185-.2-.286-.371-.171-.614-.371-.157-.128-.343-.057-.485-.214-.171-.171.014-.114-.271-.2a6.369,6.369,0,0,1-.642-.286c-.243-.114-.257-.243-.614-.314-.3-.071-.257-.186-.6-.343a2.33,2.33,0,0,0-.656-.271c-.228-.057-.343-.286-.585-.357-.514-.185-.528-.314-1.156-.2-.257.043-.157.043-.314.143-.328.228-.328-.071-.571.414Z" transform="translate(-602.19 -564.97)" fill="#fff" fill-rule="evenodd"/>
          <path id="Path_55" data-name="Path 55" d="M608.613,577.088c0,.314-.043.457-.043.785V582.5c0,.342.143.757.143,1.213.571.4.029.328.542.728.157.114.228.357.457.528.128.1.086.014.2.129.143.114.071.185.314.286.3.143.171.043.385.257a1.716,1.716,0,0,0,.956.371c.214.428.528.285.956.485a1.853,1.853,0,0,0,.571.128c.214.057.271.186.5.243.471.143.714,0,1.213.243a7.067,7.067,0,0,0,1.327.157,5.577,5.577,0,0,1,.571.143,15.128,15.128,0,0,0,2.112.129,11.2,11.2,0,0,0,1.385-.029,21.445,21.445,0,0,0,2.669-.285c.828-.014.7-.186,1.185-.271.214-.029.5-.014.657-.043.3-.057.271-.128.514-.228s.542-.071.728-.214a1,1,0,0,1,.428-.128.625.625,0,0,0,.471-.228c.2-.171.3-.086.528-.214l1.684-1.27c.086-.171-.057-.057.128-.243.485-.485.057-.328.5-.614,0-.514.043-.842.043-1.356,0-.871.071-4.9-.043-5.424a.783.783,0,0,0-.443.014c-.214.071-.171.157-.328.243-.171.114-.186.029-.385.171-.271.2-.428.143-.728.4-.128.128-.128.086-.286.128a.718.718,0,0,0-.1.043,3.211,3.211,0,0,0-.756.414c-.214.171-.157.014-.757.371-.157.1-.214.071-.371.2-.428.343-.129-.071-.728.385-.157.114-.257.071-.385.171-.171.129.057.029-.157.129s-.485-.014-.514.371c-.471,0-.5.186-.871.286a.742.742,0,0,0-.328.228c-.143.129-.257.086-.457.157s-.328.228-.528.314l-.4.214c-.071.029-.171.043-.243.071-.171.071-.214.186-.3.314-.286,0-.414.014-.571.243a4.221,4.221,0,0,1-1.7-.071c-.228-.129-.557-.186-.685-.314-.243-.257-.4-.171-.628-.343l-.471-.228c-.243-.143-.171-.185-.5-.257-.371-.071-.143-.228-.442-.3-.514-.129-.214-.129-.5-.243a1.415,1.415,0,0,1-.371-.1c-.143-.1-.043-.143-.271-.243a1.413,1.413,0,0,1-.343-.128c-.4-.257-.2-.029-.614-.357a.9.9,0,0,0-.357-.157c-.314-.086-.357-.228-.642-.343-.057-.014-.129-.043-.171-.057l-.3-.171c-.6-.214-.186-.015-.471-.286-.114-.1-.228-.071-.371-.143s-.129-.114-.3-.157c-.285-.086-.171.043-.342-.171-.2-.257-.4-.157-.642-.343-.171-.128-.342-.071-.485-.228a.646.646,0,0,0-.471-.257.824.824,0,0,0-.371.128Z" transform="translate(-599.463 -559.846)" fill="#fff" fill-rule="evenodd"/>
          <path id="Path_56" data-name="Path 56" d="M615.54,572.372c0,1.056.114.714.5.914.157.086.128.143.4.157a5.2,5.2,0,0,1,.528.043c.171.014.328,0,.5,0a9.624,9.624,0,0,0,2.427.328,2.208,2.208,0,0,1,.942.186c.514.171,1.385.1,1.955.243a8.391,8.391,0,0,0,2.012.186c.514,0,.471.1.856.214a3.193,3.193,0,0,0,1.014.114c1.028-.014.828.228,1.955.228a4.277,4.277,0,0,1,.471.057,3.62,3.62,0,0,1,.557,0c.2.043.328.271.842.271a33.8,33.8,0,0,1,.043,3.84.912.912,0,0,0-.571.357c-.086.086-.057.028-.129.1l-.357.4c-.171.3-.086.528-.2.785a1.727,1.727,0,0,0-.143.828v8.464c0,.171.1.043.186.285a1.783,1.783,0,0,0,.1.371c.1.185.457.228.742.228.5,0,2.769.114,2.94-.186.086-.114.057-.186.171-.342.086-.114.214-.2.214-.314,0-1.085.086-9.035-.1-9.435-.043-.086-.143-.2-.186-.286-.143-.3.029-.243-.3-.671-.257-.314-.186-.029-.385-.328-.086-.128-.143-.228-.485-.257,0-.885.057-4.054-.057-4.853-.071-.457-.085-.2-.428-.457-.243-.2-.742-.157-1.1-.157-.528,0-.714-.228-1.185-.271s-.842-.029-1.342-.057a8.319,8.319,0,0,1-1.213-.243c-.414-.086-1.242-.086-1.57-.157a2.41,2.41,0,0,0-.956-.157l-1.342-.057a2.62,2.62,0,0,1-.5-.214c-.171-.043-.485-.071-.642-.1-.485-.057-.871-.014-1.3-.1a4.983,4.983,0,0,0-1.313-.143,3.328,3.328,0,0,1-1.213-.186c-.414-.143-1.741-.371-2.113-.014l-.071.071c-.1.128-.157.157-.157.314Z" transform="translate(-596.485 -562.052)" fill="#fff" fill-rule="evenodd"/>
        </g>
      </g>
    </g>
  </g>
</svg>
