<svg xmlns="http://www.w3.org/2000/svg" viewBox="0 0 32 32"><title>cloud data sync</title><g class="nc-icon-wrapper" stroke-linecap="square" stroke-linejoin="miter" stroke-width="2" fill="#3c54a5" stroke="#3c54a5"><path d="M18.985,4A11.993,11.993,0,0,0,7.157,14.053,7,7,0,0,0,7.985,28h11a12,12,0,0,0,0-24Z" fill="none" stroke="#3c54a5" stroke-miterlimit="10"/><path data-cap="butt" data-color="color-2" d="M20.5,13.437A4.994,4.994,0,0,0,12,17" fill="none" stroke-miterlimit="10" stroke-linecap="butt"/><path data-cap="butt" data-color="color-2" d="M13.486,21.553A5.056,5.056,0,0,0,17,23a5,5,0,0,0,5-5" fill="none" stroke-miterlimit="10" stroke-linecap="butt"/><polygon data-color="color-2" data-stroke="none" points="23 10.834 23 16 18 16 23 10.834" stroke="none"/><polygon data-color="color-2" data-stroke="none" points="11 24.166 11 19 16 19 11 24.166" stroke="none"/></g></svg>