<svg xmlns="http://www.w3.org/2000/svg" width="53.174" height="53.55" viewBox="0 0 53.174 53.55">
  <g id="Group_384" data-name="Group 384" opacity="0.65">
    <ellipse id="Ellipse_23" data-name="Ellipse 23" cx="22.528" cy="22.688" rx="22.528" ry="22.688" transform="translate(4.058 4.087)" fill="#3b56a6"/>
    <path id="Path_173" data-name="Path 173" d="M26.587,0A26.532,26.532,0,0,1,45.4,7.828a26.978,26.978,0,0,1,0,37.894,26.522,26.522,0,0,1-37.628,0,26.978,26.978,0,0,1,0-37.894A26.593,26.593,0,0,1,26.587,0Zm13.07,13.613a18.425,18.425,0,0,0-26.14,0,18.742,18.742,0,0,0,0,26.325,18.425,18.425,0,0,0,26.14,0,18.742,18.742,0,0,0,0-26.325Z" transform="translate(0 0)" fill="#e8eaf0"/>
    <path id="Path_178" data-name="Path 178" d="M5.959,11.6h5.587V5.972A1.831,1.831,0,0,1,13.366,4.14h.208a1.831,1.831,0,0,1,1.819,1.832V11.6h5.613A1.826,1.826,0,0,1,22.8,13.431v.209a1.826,1.826,0,0,1-1.793,1.832H15.393v5.653a1.825,1.825,0,0,1-1.819,1.806h-.208a1.825,1.825,0,0,1-1.819-1.806V15.473H5.959A1.831,1.831,0,0,1,4.14,13.64v-.209A1.831,1.831,0,0,1,5.959,11.6Z" transform="translate(13.117 13.239)" fill="#fff" fill-rule="evenodd"/>
  </g>
</svg>
