<svg id="Camada_x0020_1" xmlns="http://www.w3.org/2000/svg" width="71.56" height="83.966" viewBox="0 0 71.56 83.966">
  <path id="Path_217" data-name="Path 217" d="M9.351,0h28.91a13.4,13.4,0,0,1,3.244.256c4.1.673,6.361,2.69,8.635,5.2h5.836a10.709,10.709,0,0,1,7.617,3.2,10.063,10.063,0,0,1,1.383,1.7,10.862,10.862,0,0,1,6.584,9.993V73.108A10.875,10.875,0,0,1,68.4,80.779a10.723,10.723,0,0,1-7.617,3.187H19.735a10.6,10.6,0,0,1-5.3-1.409,10.886,10.886,0,0,1-3.705-3.475,11.157,11.157,0,0,1-1.813-1.009,10.935,10.935,0,0,1-3.769-4.436,9.7,9.7,0,0,1-2.4-1.762A9.418,9.418,0,0,1,0,65.229V9.417A9.361,9.361,0,0,1,2.751,2.771,9.231,9.231,0,0,1,9.351,0ZM61.812,23.222V65.709a.274.274,0,0,0-.016.112v.128a.274.274,0,0,0-.016.112h0c0,.048-.016.08-.016.128,0,.064-.016.144-.016.224h0a.355.355,0,0,0-.016.128,1.026,1.026,0,0,0-.032.112.274.274,0,0,1-.016.112c0,.048-.016.08-.016.112,0,.048-.016.08-.016.128a1.027,1.027,0,0,0-.032.112h0c0,.032-.016.08-.016.112-.016.032-.016.08-.032.112a.3.3,0,0,1-.032.112c0,.032-.016.08-.016.112h0a.3.3,0,0,0-.032.112c-.016.032-.016.08-.032.112s-.016.08-.032.112a2582.876,2582.876,0,0,0-.064.224h0a.785.785,0,0,0-.048.112,1.027,1.027,0,0,0-.032.112l-.048.1a.233.233,0,0,1-.032.112.784.784,0,0,0-.048.112c-.016.032-.016.064-.032.1h0a.784.784,0,0,1-.048.112.785.785,0,0,0-.048.112h0l-.048.1a.784.784,0,0,0-.048.112h0l-.048.1h0l-.048.1a.783.783,0,0,1-.048.112.335.335,0,0,1-.064.1h0l-.048.1h0c-.016.032-.032.08-.048.112a.335.335,0,0,0-.064.1l-.048.1a.335.335,0,0,0-.064.1h0c-.016.032-.048.064-.064.1h0a.335.335,0,0,1-.064.1h0a.335.335,0,0,1-.064.1h0a1.052,1.052,0,0,1-.191.272h0l-.191.288h0a11.268,11.268,0,0,1-.811.929c-.223.208-.445.416-.668.609h0c-.1.064-.175.144-.27.208h0a1.692,1.692,0,0,1-.175.144h0a.332.332,0,0,0-.1.064h0a.333.333,0,0,0-.1.064h0a.28.28,0,0,0-.08.064h0a.333.333,0,0,0-.1.064h0a.332.332,0,0,0-.1.064h0l-.1.048h0a.333.333,0,0,1-.1.064h0c-.032.016-.064.048-.1.064h0a.772.772,0,0,1-.111.048.332.332,0,0,1-.1.064h0l-.1.048h0c-.032.016-.064.048-.1.064h0a.772.772,0,0,1-.111.048l-.1.048-.1.048c-.032.016-.08.032-.111.048l-.1.048c-.032.016-.08.032-.111.048h0l-.1.048h0c-.08.032-.143.064-.223.1a.225.225,0,0,0-.1.032c-.032.016-.08.032-.111.048h0a1.918,1.918,0,0,0-.223.08h0a.225.225,0,0,0-.1.032h0a1.006,1.006,0,0,0-.111.032h0a1,1,0,0,0-.111.032h0c-.032.016-.08.016-.111.032h0a4.528,4.528,0,0,1-.445.112h0a1.008,1.008,0,0,0-.111.032h0c-.048.016-.08.016-.127.032h0c-.032,0-.064.016-.111.016h0c-.032,0-.064.016-.111.016h0c-.032.016-.08.016-.111.032a.234.234,0,0,0-.111.016h0a.348.348,0,0,0-.127.016h0a.269.269,0,0,0-.111.016h0c-.08,0-.159.016-.239.016a.269.269,0,0,1-.111.016h0c-.048,0-.08.016-.127.016h-.111a.348.348,0,0,1-.127.016h-.35a.348.348,0,0,1-.127.016H9.335a.2.2,0,0,1-.1-.016H9.064a8.216,8.216,0,0,0,1.384,1.185,7.981,7.981,0,0,0,4.4,1.377H55.976a8.119,8.119,0,0,0,8.062-8.1V16.223h0A8.166,8.166,0,0,0,61.669,10.6c-1.463-1.473-3.276-2.707-9.033-2.21,3.053,2.434,8.969,8.136,9.048,10.7.064,2.306.191,3.187.127,4.132ZM55.674,74.069a1.918,1.918,0,0,0-.223.08ZM59.316,21.4v-.128h0v-.016h0a.2.2,0,0,1-.016-.1h0v-.064h0v-.016h0V21.06h0v-.016h0a.274.274,0,0,0-.016-.112l-7.108.08-.111.016a12.024,12.024,0,0,1-7.506-3.347c-2.195-2-3.785-4.676-3.817-7.271v-.1l.032-7.495a16.884,16.884,0,0,0-2.29-.144H9.573A6.6,6.6,0,0,0,4.9,4.628a6.726,6.726,0,0,0-1.94,4.708V65.148A6.726,6.726,0,0,0,4.9,69.857a6.61,6.61,0,0,0,4.58,1.954H52.939l.1-.016h.159a.684.684,0,0,0,.08-.016h.1l.08-.016h.08a.172.172,0,0,1,.08-.016l.08-.016.1-.016.08-.016a.172.172,0,0,0,.08-.016l.08-.016.08-.016.08-.016.08-.016h0c.032,0,.048-.016.08-.016l.08-.032h0c.032,0,.048-.016.08-.016l.08-.016.08-.032h0l.08-.016.064-.032h0l.08-.032.08-.016h0c.032-.016.048-.032.08-.032.016-.016.048-.016.08-.032h0l.064-.032.08-.032.08-.032h0l.064-.032.08-.032.064-.032h0l.08-.048h0a.12.12,0,0,0,.064-.032l.08-.032.064-.048.08-.032h0l.064-.032v-.016l.064-.032h0l.08-.048h0l.064-.032.064-.048h0a.22.22,0,0,0,.064-.048h0l.08-.032a.22.22,0,0,1,.064-.048h0l.064-.048h0c.016-.016.048-.032.064-.048h0l.064-.048h0c.016-.016.048-.032.064-.048h0l.064-.048h0l.064-.048h0l.064-.064h0a.22.22,0,0,1,.064-.048h0l.048-.048h0l.064-.048h0l.064-.064h0l.048-.048h0l.064-.048h0l.064-.064h0l.048-.048h0l.064-.064h0a.221.221,0,0,0,.048-.064h0c.016-.016.048-.032.064-.048h0l.048-.064h0a.221.221,0,0,0,.048-.064h0l.064-.048h0l.048-.064h0l.048-.064h0l.048-.064h0l.048-.064h0l.064-.064h0L58,69.12h0l.048-.064h0l.048-.064h0l.032-.064.048-.064h0l.048-.064h0l.048-.08h0l.032-.064h0l.048-.064h0l.048-.064h0l.032-.08h0l.048-.064.032-.064.048-.08h0l.032-.064.032-.08.032-.064.048-.08.032-.08.032-.064.032-.08h0l.032-.08a.122.122,0,0,1,.032-.064h0l.016-.08.032-.08h0l.032-.08.032-.064.016-.08.032-.08.016-.08.032-.08h0l.016-.08.016-.08h0l.032-.08.016-.08h0l.016-.08.016-.08h0l.016-.08.016-.08c0-.032.016-.048.016-.08a.7.7,0,0,1,.016-.08l.016-.08v-.1l.016-.08v-.08a.175.175,0,0,0,.016-.08v-.1l.016-.08v-.256a.121.121,0,0,0,.016-.08V21.4Zm7.57-6.646c.048.368.08.737.1,1.121V15.9h0V16a.315.315,0,0,0,.016.112h0v52.9a10.889,10.889,0,0,1-3.18,7.671A10.667,10.667,0,0,1,56.2,79.866H15.632c.111.08.239.144.366.224a7.858,7.858,0,0,0,3.96,1.041H61a7.979,7.979,0,0,0,5.677-2.386,8.064,8.064,0,0,0,2.369-5.717V20.275a8.08,8.08,0,0,0-1.431-4.612,7.978,7.978,0,0,0-.731-.913ZM42.157,57.67c-2.5.657-3.276,2.37-5.327,2.963-2.894.849-4.246-.849-5.8-1.89-5.788-3.844-9.51,1.489-11.815,1.97-2.862.609-4.182-1.057-5.757-2.114-1.972-1.329-5.947-1.97-5.216.528.318,1.089,1.956.721,3.021,1.169a11.788,11.788,0,0,1,2.433,1.634c5.5,4.068,9.812-1.281,11.7-1.778,2.974-.817,4.23.849,5.852,1.922,5.788,3.8,9.414-1.521,11.768-2,4.214-.849,4.453,2.658,8.778,3.235,1.209.16,2.56-.1,2.21-1.553-.286-1.233-1.892-.817-2.99-1.249C49.075,59.751,46.991,56.4,42.157,57.67ZM36.957,27.8c-2.831.865-4.341-.7-5.82-1.778-5.582-4.036-9.653,1.361-11.815,1.858-2.847.657-4.135-.9-5.741-2.018-1.129-.785-5.868-2.562-5.375.32.223,1.265,1.813.849,2.958,1.265,1.956.737,3.991,4.036,8.762,2.915,2.544-.593,3.339-2.322,5.311-2.979,2.8-.913,4.4.721,5.932,1.826,5.5,3.94,9.7-1.441,11.688-1.906,2.99-.7,4.262.993,5.868,2.066,1.67,1.105,5.566,2.114,5.311-.272-.127-1.393-1.654-.945-2.878-1.329-2.067-.689-4.055-4.132-8.889-2.947-2.592.641-3.292,2.37-5.311,2.979Zm-.1,8.232c-2.894.833-4.294-.833-5.836-1.906a7.705,7.705,0,0,0-6.6-.945c-2.21.689-3.149,2.482-5.184,2.915-2.974.641-4.166-1.089-5.788-2.114-1.924-1.233-5.884-1.986-5.2.528.3,1.153,1.861.737,3.006,1.169a11.781,11.781,0,0,1,2.433,1.634A7.355,7.355,0,0,0,20.1,38.5c2.481-.641,3.276-2.4,5.311-2.963,4.866-1.361,5.9,4.949,12.436,2.851,2.242-.721,3.1-2.5,5.2-2.915,2.783-.577,4.182,1.105,5.757,2.13a6.659,6.659,0,0,0,2.942,1.089c1.224.176,2.656-.064,2.258-1.553-.318-1.2-1.956-.817-3.006-1.233-2.035-.8-3.976-4.084-8.826-2.835C39.629,33.711,38.929,35.441,36.862,36.033Zm5.089,5.3c-2.322.673-3.276,2.45-5.168,2.915C31.773,45.5,30.8,39.284,24.458,41.366c-2.195.721-3.212,2.514-5.184,2.931-2.894.625-4.31-1.089-5.868-2.13-2-1.329-5.788-1.858-5.184.5.3,1.185,1.956.8,2.99,1.2a12.522,12.522,0,0,1,2.449,1.618c5.629,4.132,9.78-1.2,11.656-1.714,3.069-.865,4.389.881,6,1.938,5.773,3.78,9.287-1.6,11.8-2.05,3.021-.528,4.166,1.217,5.868,2.258,2.687,1.65,6.043,1.281,4.9-.849-.509-.977-1.972-.528-3.165-1.073a18.54,18.54,0,0,1-2.369-1.682,7.537,7.537,0,0,0-6.393-.977ZM37.307,52.273C32.266,54.306,31.3,47.74,24.76,49.486c-2.433.641-3.212,2.37-5.184,2.947-2.99.865-4.421-.9-6-1.938-2.226-1.457-5.836-1.986-5.359.32.239,1.185,1.749.833,2.831,1.2A9.466,9.466,0,0,1,13.517,53.6c5.693,4.116,9.732-.8,11.466-1.521,2.751-1.121,4.469.528,6,1.6a7.4,7.4,0,0,0,6.568,1.2c2.369-.673,3.228-2.386,5.168-2.931,2.862-.8,4.421.865,5.932,1.938,1.05.753,5.375,2.5,5.407-.016.016-1.489-1.415-1.105-2.608-1.425-2.354-.641-4.007-4.1-8.921-3.059-2.735.577-3.244,2.1-5.216,2.883Zm14.837-34,5.963-.064c-2.338-3.315-4.612-5.237-7.188-8.071H50.9l-.191-.192a52.273,52.273,0,0,0-7.236-6.134c0,2.178-.032,4.388-.016,6.566.016,1.778,1.24,3.731,2.926,5.253a9.244,9.244,0,0,0,5.677,2.658Z" transform="translate(0 0)" fill="#ed2f59"/>
</svg>
