<svg id="Group_385" data-name="Group 385" xmlns="http://www.w3.org/2000/svg" width="53.174" height="53.55" viewBox="0 0 53.174 53.55">
  <ellipse id="Ellipse_23" data-name="Ellipse 23" cx="22.528" cy="22.688" rx="22.528" ry="22.688" transform="translate(4.058 4.087)" fill="#3b56a6"/>
  <path id="Path_173" data-name="Path 173" d="M26.587,0A26.532,26.532,0,0,1,45.4,7.828a26.978,26.978,0,0,1,0,37.894,26.522,26.522,0,0,1-37.628,0,26.978,26.978,0,0,1,0-37.894A26.593,26.593,0,0,1,26.587,0Zm13.07,13.613a18.425,18.425,0,0,0-26.14,0,18.742,18.742,0,0,0,0,26.325,18.425,18.425,0,0,0,26.14,0,18.742,18.742,0,0,0,0-26.325Z" transform="translate(0 0)" fill="#e8eaf0"/>
  <path id="Path_196" data-name="Path 196" d="M7.059,8.85H22.208a1.841,1.841,0,0,1,1.819,1.832v.208a1.846,1.846,0,0,1-1.819,1.852H7.059A1.846,1.846,0,0,1,5.24,10.89v-.208A1.841,1.841,0,0,1,7.059,8.85Z" transform="translate(11.953 15.979)" fill="#fff" fill-rule="evenodd"/>
</svg>
