<svg id="Camada_x0020_1" xmlns="http://www.w3.org/2000/svg" width="100.094" height="100.095" viewBox="0 0 100.094 100.095">
  <path id="Path_776" data-name="Path 776" d="M64.146,91.422c.194-.294.476-.576.711-.87l2.134-2.793c.923-1.246,1.764-2.593,2.569-3.933l.876-1.546a59.525,59.525,0,0,0,2.881-6.038,12.5,12.5,0,0,1,.5-1.17H85.83A19.31,19.31,0,0,1,83.808,77.8a48.029,48.029,0,0,1-3.387,3.7c-.488.388-.806.811-1.264,1.158l-1.264,1.07c-.218.182-.406.347-.635.535-.247.2-.453.347-.711.541a42.979,42.979,0,0,1-4.233,2.852l-6.391,3.116c-.317.129-.529.206-.847.323a6.848,6.848,0,0,1-.929.323ZM49.747,0h.847a52.133,52.133,0,0,1,6.35.441A49.062,49.062,0,0,1,75.124,6.7c.365.194.641.37.994.588,1.564.964,3.034,2,4.492,3.1,1.176.882,2.175,1.87,3.316,2.775l4.139,4.286a43.552,43.552,0,0,1,4.8,6.626c.958,1.611,1.817,3.263,2.646,4.951l.929,2.158a51.291,51.291,0,0,1,2.24,6.932,50.407,50.407,0,0,1,1.417,13.1,48.8,48.8,0,0,1-3.681,17.751,46.819,46.819,0,0,1-3.61,7.15c-.206.329-.37.6-.582.923L87.63,83.126a25.214,25.214,0,0,1-2.193,2.311,45.339,45.339,0,0,1-4.921,4.339c-.6.447-1.111.829-1.729,1.276A40.06,40.06,0,0,1,73.066,94.5c-.664.335-1.329.676-2,1.005a33.239,33.239,0,0,1-4.386,1.782,44.341,44.341,0,0,1-4.7,1.393c-1.623.347-3.351.77-5.109.982A51.745,51.745,0,0,1,38.053,98.66a42.383,42.383,0,0,1-4.7-1.393c-.77-.276-1.482-.559-2.228-.853-.359-.141-.67-.276-1.064-.441a45.454,45.454,0,0,1-8.808-4.956c-.606-.453-1.158-.847-1.776-1.311L16.969,87.63a25.214,25.214,0,0,1-2.311-2.193L12.03,82.644a40.32,40.32,0,0,1-2.987-3.857,48.983,48.983,0,0,1-7.626-16.81A50.38,50.38,0,0,1,0,48.877a40.128,40.128,0,0,1,.453-5.715c.253-1.746.588-3.422.982-5.109.382-1.646.888-3.181,1.388-4.7a45.742,45.742,0,0,1,4.468-9.378c.964-1.564,2-3.034,3.1-4.492.882-1.176,1.87-2.175,2.775-3.316a57.683,57.683,0,0,1,4.286-4.139,42.068,42.068,0,0,1,5.7-4.222,54.64,54.64,0,0,1,5.874-3.222A38.669,38.669,0,0,1,33.414,2.8,50.689,50.689,0,0,1,49.747,0Zm3.469,93.086V75.071H66.98c-.347,1.493-3.21,6.274-4.157,7.691l-4.363,5.562a36.326,36.326,0,0,1-5.245,4.762Zm-20.1-18.015H46.878V93.086a22.546,22.546,0,0,1-2.693-2.228c-.459-.47-1.352-1.188-2-1.923l-3.21-3.792-2.428-3.5a45.23,45.23,0,0,1-2.822-5.186Zm-18.85,0H26.276l.964,2.287c.329.8.711,1.488,1.035,2.217.512,1.152,1.029,2.087,1.64,3.2a57.555,57.555,0,0,0,4.9,7.279l1.129,1.37L31.72,89.729a41.747,41.747,0,0,1-5.38-2.963A52.2,52.2,0,0,1,21.6,83.243L20.332,82.1A17.521,17.521,0,0,1,18.5,80.339c-.382-.482-.735-.747-1.105-1.229-.753-.976-1.787-2-2.652-3.275l-.382-.529a1.131,1.131,0,0,1-.1-.235ZM28.275,53.216h18.6v15.6H30.944c-.259,0-.223-.118-.382-.7-.094-.359-.153-.582-.247-.923a61.7,61.7,0,0,1-1.8-10.707Zm41.04,15.6h-16.1v-15.6h18.6l-.335,4.169a59.407,59.407,0,0,1-1.252,7.761l-.917,3.669Zm20.185,0H75.823a67.779,67.779,0,0,0,1.523-7.4l.729-8.2h15.6L93.1,57.567A43.794,43.794,0,0,1,91,65.311c-.476,1.182-.935,2.422-1.505,3.5ZM6.421,53.216h15.6a73.528,73.528,0,0,0,.717,8.214c.206,1.305.376,2.516.653,3.763.147.647.688,3.21.882,3.622H10.6A43.634,43.634,0,0,1,6.673,55.468C6.638,55.168,6.479,53.346,6.421,53.216Zm46.8-21.937h16.1l.935,3.569a59.873,59.873,0,0,1,1.323,8.772l.247,3.257h-18.6v-15.6Zm-22.437,0h16.1v15.6h-18.6L28.61,42.7a60.885,60.885,0,0,1,1.934-10.489,4.932,4.932,0,0,0,.235-.935Zm45.044,0H89.5a43.679,43.679,0,0,1,3.916,13.353c.035.341.188,2.1.259,2.246h-15.6a70.681,70.681,0,0,0-1.388-11.965c-.123-.617-.676-3.234-.864-3.634Zm-53.8,15.6H6.421L6.667,44.7A43.268,43.268,0,0,1,10.6,31.279H24.271a63.745,63.745,0,0,0-1.535,7.385A72.275,72.275,0,0,0,22.019,46.878Zm31.2-39.87a34.7,34.7,0,0,1,4.233,3.687c.8.8,1.623,1.823,2.334,2.587.165.176.3.365.453.553a53.485,53.485,0,0,1,3.3,4.615,61.541,61.541,0,0,1,3.151,5.856,4.566,4.566,0,0,1,.288.717H53.216V7.008Zm-6.338,0V25.024H33.114a8.593,8.593,0,0,1,.559-1.358,53.79,53.79,0,0,1,6.1-9.754L42.6,10.742a34.359,34.359,0,0,1,4.274-3.734ZM64.146,8.672a16.722,16.722,0,0,1,1.717.617,44.328,44.328,0,0,1,7.908,4.022,56.059,56.059,0,0,1,4.721,3.54l3.1,2.9c.97,1.1,4,4.416,4.233,5.274H73.736c-.076-.888-2.469-5.6-3-6.673A55.116,55.116,0,0,0,64.893,9.59c-.229-.294-.547-.611-.747-.917ZM26.358,25.024H14.264c.188-.711,2.516-3.263,3.087-4,.347-.453.764-.776,1.152-1.264a42.95,42.95,0,0,1,3.7-3.393c1.094-.888,2.193-1.77,3.375-2.552l5.286-3.052c.512-.253,1.111-.541,1.658-.764.647-.265,2.734-1.158,3.428-1.323l-2.81,3.616a51.818,51.818,0,0,0-3.157,4.927c-.123.212-.182.359-.288.547C29.175,18.656,26.435,24.124,26.358,25.024Z" transform="translate(0)" fill="#f9c422" fill-rule="evenodd"/>
</svg>
