<svg xmlns="http://www.w3.org/2000/svg" width="114.395" height="100.095" viewBox="0 0 114.395 100.095">
  <g id="Camada_x0020_1" transform="translate(0)">
    <g id="_1699328430496" transform="translate(0 0)">
      <path id="Path_769" data-name="Path 769" d="M91.557,19.266c.532-.286.643-.228,1.378-.232l4.591,0,.018-5.3c.025-.782.054-.378.2-.553a4.1,4.1,0,0,1,2.1-3.213c1.471-.889,7.985-.878,9.456,0a4.211,4.211,0,0,1,2.088,3.22c.45.514.218,2.131.225,2.838,0,1.021.014,2.006-.018,3.016,1.028.007,5.126-.225,5.983.236a4.1,4.1,0,0,1,3.138,2.149c.753,1.342.767,7.343.386,8.457a4.266,4.266,0,0,1-3.63,3.052c-.325.439-4.9.2-5.8.225-.011.982.264,5.137-.268,5.954-.46,4-4.591,3.705-6.836,3.705s-6.368.286-6.836-3.705c-.525-.8-.257-4.969-.264-5.954-1.082-.025-5.223.289-5.783-.228A4.068,4.068,0,0,1,88.448,30.8c-.735-1.3-.593-3.038-.6-4.676,0-2.056-.3-6.5,3.705-6.854ZM120.054,0h-3.191c-.839.289-2.463.432-3.52.767-3.98,1.267-6.515,4.319-8.585,4.455-1.731.114-4.451-2.2-5.7-2.959C95.569.157,94.338.742,92.721,0H89.076a35.791,35.791,0,0,0-5.044,1.389C72.409,6.176,70.92,21.647,77.753,32.716c.871,1.41,1.66,2.684,2.584,3.905A70.786,70.786,0,0,0,88.151,45.2c.589.535,1.153,1.157,1.76,1.667,3.927,3.295,6.611,5.658,10.834,8.806a42.967,42.967,0,0,0,3.82,2.8c2.731-1.5,11.462-8.967,14.543-11.519,1.114-.921,2.356-2.17,3.331-3.152a70.74,70.74,0,0,0,6.186-6.961,48.154,48.154,0,0,0,2.677-4.005c4.273-6.965,6.543-17.47,1.074-25.374a16.462,16.462,0,0,0-7.147-6.008C122.5.293,120.975.382,120.054,0Z" transform="translate(-47.367 0)" fill="#cd264d" fill-rule="evenodd"/>
      <path id="Path_770" data-name="Path 770" d="M32.445,116.76c-.046-2.492-.178-8.864-1.2-10.641-1.321-2.3-10.634-8.121-13.44-9.827-1.242-.757-2.388-1.481-3.634-2.274-3.809-2.413-6.368-4.105-8.746-8.6C3.762,82.265,3.93,79.381,3.9,75.4,3.748,57.627,2.856,59.319,6.425,42.92c.71-3.266.782-7.147,4.441-7.243a3.664,3.664,0,0,1,3.588,2.4c.6,1.592-1.517,14.165-.917,21.5.339,4.13.075,1.617-.978,4.351-1.221,3.163.853,6.29,1.981,8.939l3.588,8.053c.675,1.06,5.344,4.355,6.615,4.958-.95-1.546-2.131-2.977-3.152-4.619L16.514,70.71c-.757-1.667-2.285-3.78-1.614-5.765a3.651,3.651,0,0,1,4.933-2.135c1.189.535,1.31,1.032,1.985,2.02,5.772,8.478,9.363,11.655,16.967,18.12,2.984,2.538,5.854,4.551,8.2,7.429C49.93,94,49.89,97.162,50.408,102.524c.457,4.737.857,9.524,1.4,14.282l-19.362-.046ZM0,56.389V71.281C1.167,75.454-3.016,84.207,6.882,93.5a34.849,34.849,0,0,0,5.7,4.023c4,2.488,8.078,5.008,11.8,7.65a32.58,32.58,0,0,1,2.713,2.049c1.2,1.042,1.05,1.646,1.246,3.734.3,3.191.311,6.411.35,9.635h27.3c-.261-5.426-1.649-16.721-2.242-22.875-.7-7.272-3.695-9.867-8.075-14.025-1.831-1.738-5.958-4.858-8.51-7.118A67.62,67.62,0,0,1,25.345,63.214c-2.834-4.419-4.13-4.152-8.053-4.537-.5-5.226.45-11.541.942-16.663.3-3.17.45-5.019-1.278-7.211a7.561,7.561,0,0,0-11.973.014C3.4,36.887,1.9,45.729,1.239,48.828.964,50.117.239,55.839,0,56.389Z" transform="translate(0 -20.492)" fill="#cd264d" fill-rule="evenodd"/>
      <path id="Path_771" data-name="Path 771" d="M187.142,116.8l-19.359.046c.46-4.755.942-9.528,1.4-14.207.532-5.476.436-8.649,3.445-12.216,6.561-7.778,14.518-9.963,25.149-25.563.682-1,.775-1.489,1.981-2.02a3.653,3.653,0,0,1,4.937,2.142c.668,1.956-.867,4.119-1.617,5.758L198,81.292c-1.025,1.642-2.192,3.066-3.152,4.623,1.289-.61,5.922-3.88,6.615-4.962l3.588-8.053c1.121-2.556,3.177-5.79,1.974-8.931-1.057-2.77-1.3-.221-.971-4.362.457-5.762-.207-10.6-.764-16.392-.136-1.4-.625-3.88-.157-5.1a3.636,3.636,0,0,1,3.591-2.4c3.638.1,3.759,3.934,4.444,7.236.678,3.277,1.51,6.486,2.038,9.77,1.089,6.8.553,15.582.482,22.707-.043,4.209.268,6.586-1.531,10.017a21.28,21.28,0,0,1-5.29,6.333c-1.788,1.406-11.33,7.157-14.157,9.106C187.189,106.069,187.392,105.7,187.142,116.8ZM163.6,120.616h27.312c0-2.97.046-6.022.282-8.956.3-3.7-.111-3.548,3.231-5.915,3.538-2.506,7.311-4.948,11.184-7.311,4.858-2.963,6.593-3.762,10.127-8.371A18.706,18.706,0,0,0,218.824,84c1.235-4.337.168-6.811.771-8.567V57.593l-1.046-7.8c-.507-2.527-1.107-5.026-1.628-7.536-.839-4.02-1.367-9.942-7.807-10.331a7.252,7.252,0,0,0-6.3,2.7c-1.813,2.135-1.771,4.094-1.467,7.243.514,5.276,1.428,11.441.957,16.835-4.359.439-5.076.15-8.035,4.555a74.061,74.061,0,0,1-5.515,7.068c-3.116,3.816-9.228,8.835-13.169,11.994-5.362,4.3-9.06,8.239-9.731,15.421-.7,7.525-1.756,15.3-2.249,22.875Z" transform="translate(-105.199 -20.521)" fill="#cd264d" fill-rule="evenodd"/>
      <path id="Path_772" data-name="Path 772" d="M130.187,98.4l-.079-6.133-5.969-.05c.56.518,4.7.2,5.783.228C129.93,93.434,129.662,97.6,130.187,98.4Z" transform="translate(-79.826 -59.3)" fill="#cd264d" fill-rule="evenodd"/>
      <path id="Path_773" data-name="Path 773" d="M179.38,98.409c.532-.817.257-4.973.268-5.954.9-.021,5.472.214,5.8-.225l-6,.114-.061,6.065Z" transform="translate(-115.346 -59.307)" fill="#cd264d" fill-rule="evenodd"/>
      <path id="Path_774" data-name="Path 774" d="M185.52,43c-.857-.46-4.955-.228-5.983-.236.032-1.01.021-2,.018-3.016-.007-.707.225-2.324-.225-2.838l.129,6.036Z" transform="translate(-115.314 -23.734)" fill="#cd264d" fill-rule="evenodd"/>
      <path id="Path_775" data-name="Path 775" d="M123.79,42.994l6.061-.054.125-6.04c-.146.175-.175-.228-.2.553l-.018,5.3-4.591,0C124.433,42.765,124.322,42.708,123.79,42.994Z" transform="translate(-79.6 -23.728)" fill="#cd264d" fill-rule="evenodd"/>
    </g>
  </g>
</svg>
