<svg xmlns="http://www.w3.org/2000/svg" width="297.978" height="383.663" viewBox="0 0 297.978 383.663">
  <g id="Group_244" data-name="Group 244" transform="translate(-211.776 -153.946)">
    <g id="Camada_x0020_1" transform="translate(218.818 183.339)">
      <g id="_1699271163952" transform="translate(0 0)">
        <path id="Path_1094" data-name="Path 1094" d="M308.672,101.622v124.3c0,14.755-2.572,24.243-13.5,29.832L178.141,323.648c-10.23,5.911-18.519,6.768-30.992-.432L35.845,258.73c-12.144-6.008-18.262-12.383-18.107-28.646L18,97.361c0-13.021,4.345-19.983,16.489-27L148.115,4.59c10.391-6,18.822-6.5,31.45.793L289.644,69.546c14.678,8.393,18.835,14.252,19.029,32.075ZM227.562,136.5v55c0,6.523-1.135,10.726-5.969,13.195l-51.781,30.038c-4.525,2.617-8.193,2.991-13.711-.193l-49.247-28.53c-5.37-2.656-8.077-5.479-8.006-12.673l.11-58.723c0-5.756,1.921-8.837,7.3-11.938l50.272-29.1c4.6-2.656,8.328-2.875,13.917.348l48.7,28.388c6.5,3.713,8.335,6.3,8.418,14.194Z" transform="translate(-17.736 -0.001)" fill="#26dca2" fill-rule="evenodd"/>
      </g>
    </g>
    <g id="Camada_x0020_1-2" data-name="Camada_x0020_1" transform="translate(238.33 224.302)">
      <g id="_1818600749168" transform="translate(0 0)">
        <path id="Path_1012" data-name="Path 1012" d="M372.949,121.678l10.13,25.718.946,34.286-8.594,7.769-9.92-42.315,2.056-27.076Z" transform="translate(-133.525 -43.858)" fill="#f1f1f1" fill-rule="evenodd"/>
        <g id="Group_241" data-name="Group 241">
          <path id="Path_1013" data-name="Path 1013" d="M238.173,167.321l-1.638,1.384c-.628,5.1-3.764,5.408-4.976,8.53.032,3.491.374,2.672,5.9,8.048,7.419,7.216,13.646,12.383,21.3,20.469,5.319,5.617,9.1,8.663,14.261,13.589,4.525,4.3,8.752,9.285,14.452,14.154l.882.038c1.231-10.041,4.494-22.792,6.582-32.985,1.3-6.36,6.842-28.872,6.239-33.829l-3.694.076c-.635,1.974-1.263,2.761-3.021,3.275-2.031-2.951-.425-3.154-2.069-5.509l-.52,2.094-53.7.666Z" transform="translate(-84.592 -60.114)" fill="#f1f1f1" fill-rule="evenodd"/>
          <path id="Path_1014" data-name="Path 1014" d="M194.9,325.917c-2.742,4.145-20.735,9.47-26.048,13.608,5.814-.07,11.634-.527,17.327-.628,8.606-.152,8.422.482,15.4-2.386l3.618-1.542c.368-.057,3.135.057,3.751.057-1.853-.343-9.444-5.953-11.729-8.175l52.038,4.532-10.5,6.861,10.46-4.208,1.13-2.133c.063-.209.07-.4.127-.616l.362-1.974a2.5,2.5,0,0,0,.2-.666,1.122,1.122,0,0,1,.222-.673c1.739-9.057,12.288-42.86,11.85-48.046l.463-3.358.457-.4c-2.5.73-29.881,21.763-34.54,25.248-5.757,4.3-11.367,8.492-17.175,12.865-3.085,2.317-14.16,11.374-17.416,11.634Z" transform="translate(-61.683 -100.887)" fill="#abacad" fill-rule="evenodd"/>
          <path id="Path_1015" data-name="Path 1015" d="M10.5,198.306l-.146,9.958c3.542-.419,12.072,6.556,15.651,8.784,5.56,3.465,43.311,29,46.072,29.513L47.251,171.712l-4.341.216-3.161,1.181c-2.209-1.739-1.853-2.45-3.834-4.043-2.6-2.1-2.386-.527-3-4.455.3,2.2-.66.977-2.691,3.745-.863,1.181-1.682,2.647-3,4.322-2.475,3.154-3.853,4.868-6.042,7.94-6.321,8.879-7.73,9.7-10.682,17.689Z" transform="translate(-3.781 -60.132)" fill="#c6c6c8" fill-rule="evenodd"/>
          <path id="Path_1016" data-name="Path 1016" d="M11.546,253.239c.038,3.319,1.384,9.362,3.922,11.7l.025-1.891,57.553,9.895c1.961.793.406-.165,1.054,1.346,2.837.406,26.181,14.655,31.239,17.511,5.452,3.078,10.637,6.1,15.74,9.133,4.164,2.469,12.065,7.692,16.362,9.1-1.612-4.8-4.087-8.917-5.6-13.677-2.513-5.039-4.665-10.58-6.988-16.026-1.225-2.881-2.24-5.236-3.459-8.238-1.136-2.786-3.021-5.2-2.152-8.308l-2.279.673c-.248,4.513-3.592,5.509-7.572,7.47L97.578,275.37c-4.862-.355-3.656-5.268-6.626-8.765-3.345-3.935-3.859-3.5-5.465-8.981H84.116l-8.644,11.151c-2.114,2.57-1.923,2.6-3.415,2.9-2.761-.514-40.512-26.048-46.072-29.513-3.58-2.228-12.11-9.2-15.651-8.784-.248,4.075,1.181,10.606,1.834,15.48.413,3.046.381,3.319-.622,4.379Z" transform="translate(-3.765 -85.248)" fill="#cccdcf" fill-rule="evenodd"/>
          <path id="Path_1017" data-name="Path 1017" d="M196.143,244.441c-3.1,1.955-5.2,2.145-8.01,5.211-.482,4.582,2.228,7.762-1.53,10.352-7.318,5.046-.952-.171-4.792,7.3-.87,3.1,1.016,5.522,2.152,8.308,1.219,3,2.234,5.357,3.459,8.238,2.323,5.446,4.475,10.986,6.988,16.026,1.625-.92,1.326.616,2.291-4.8h1.466c0-2.475,1.022-14.122-.724-14.655,0,7.845-1.346,12.541,2.355,16.381l1.3,1.2c0-3,1.25-19.9-.724-20.507,0,5.223-.806,15.7,1.066,17.955,1.123,1.352,1.612,1.39,2.59,1.085V274.557c-1.479,1.1-.73,19.206-.73,21.973,2.507-2.018,2.19,3.1,2.19-4.4-.736.559-1.32-1.085-.52,1.1,1.1,3.021-.87.26,1.987,2.558,0-3.338,1.409-23.515-.724-24.169v22.709c1.523-1.231,2.19-.571,2.19-5.128-.286.216-1.415-.762-.571,1.644,1.092,3.129-.793.47,2.037,2.748,0-3.135,1.314-21.351-.724-21.973v20.507c1.764-1.422,2.19-.54,2.19-5.858-.311.235-1.193-.825-.774,1.625.6,3.459-.209,1.53,2.234,3.5,0-3.205,1.346-22.074-.724-22.7v21.237c2.437-1.961,2.19-.762,2.19-6.594-.311.235-1.187-.819-.768,1.631.59,3.453-.216,1.53,2.234,3.5,0-3.205,1.346-22.074-.724-22.7v21.973c2.507-2.018,2.19,3.1,2.19-4.4-.393.324-1.91-.717-.355,1.073l1.822.4c0-3.154,1.314-21.357-.73-21.973l-.159,11.742c.673,5.515-.241,2.279,2.355,4.367l1.46-19.047c-1.441,1.092-.724,17.879-.724,20.513,3.3-2.659,1.326.806,2.2-4.246l.971-2.088c.076-.057.336-.152.489-.254,0-2.678,1.1-16.292-.724-16.851v21.243c6.1-4.912,3.561-23.978,2.926-24.169,0,3.675-.083,7.4-.07,11.056.019,6.182,1.238,4.652,1.479,4.627l2.247-1.771c0-5,.647-10.663-.438-15.436a41.763,41.763,0,0,0-6.982-2.031c-.279-.07-3.548-.774-3.592-.793-2.152-.863-2.609.482-2.1-2.456l-1.1,1.257c-.806,2.672-3.853,10.885-4.747,12.154-3.192.825-6.728-.178-6.556-4.24.209-5.046,1.9-2.767.406-10.079l.806-3.04-1.929,2.456c-6.417-2.139-5.674.108-5.135-2.755a30.573,30.573,0,0,1-2.888,1.441Z" transform="translate(-66.337 -88.769)" fill="#d6d8da" fill-rule="evenodd"/>
          <path id="Path_1018" data-name="Path 1018" d="M62.979,142.438l-2.8,1.91c1.092,2.183,15.524,13.957,16.908,14.579-.939,1.847,1.269,1.282-1.384,1.561,8.955-1.092,3.415,1.974,8.733,3.173,5.693,1.282,5.89.33,5.649,7.293,2.583,1.479,5.42,4.176,7.984,6.448,1.542,1.365,2.659,1.993,4.037,3.275a44.829,44.829,0,0,0,4.367,3.688c2.685,2.088,14.255,11.19,16.229,13.766l.374-1.206-1.009-45.989c-1.085-2.755-1.028-6-1.13-11.716l-12.719.958c-3.84.1-3.63,1.288-8.181,1.181-.958-.019-2.253-.184-3.288-.114-3.446.216-1.523.381-3.224.736-3.649.768-3.827-.451-9.99.717l-11.025.914-4.2,4.278-.19-3.542c-7.711,0-5.966.076-5.141-1.91Z" transform="translate(-21.985 -50.857)" fill="#09bc85" fill-rule="evenodd"/>
          <path id="Path_1019" data-name="Path 1019" d="M211.882,99.773l-.292-.254c2.805,1.523,2.621,2.805,6.512,5.82.121.1.3.216.413.3s.267.241.368.343c1.485,1.409,1.1,2.7,3.846,2.482,2.336-.19,2.716-1.631,3.478-3.1,3.18,1.333,1.282,1.618,4.621,3.294,1.365.685,3.326,1.358,4.519,1.949a13.258,13.258,0,0,1-3.611,9.057c-1.929,1.9-4.893,2.183-7.369,4.354-3.783,3.326-2.9,2.488-7.711,4.113-4.125,1.384-3.757,2.463-6.315,2.38-2.843-.1-1.257.133-2.45-.882-2.869.2-3.034-1.733-3.859-4.436l-2.19-5.388c-1.079-.965-.146-.127-1.168-1.422a11.679,11.679,0,0,0-1-1.339c-1.625-1.752-.47-.381-2.063-1.58-3.205-2.405-1.428-2.266-2.805-5.236-1.511-3.262.406.025-2.094-2.285l-5.147-7.426-2.621.73c.578,1.676.057.051.552,1.441a5.118,5.118,0,0,1,.419,1.346l1.968,2.145c.229.324.838,1.428,1.047,1.853,3.516,6.988,3.357,3.783,4.29,7.261a49.361,49.361,0,0,0,1.295,5.223c3.707.171,3.51,3.808,6.258,6.467,2.609,2.526,5.363,2.6,6.448,6.226l1.968,1.434c3.542,2.107,11.869-.038,15.017-1,.419,4.83-1.187,5.357-3.059,9.146l53.7-.666.52-2.094.8-2.139c2.291,1.054,2.634,2.932,4.29,4.373l3.694-.076c-.19-5.655-4.773-9.247-6.379-14.027a21.617,21.617,0,0,1-.07,3.154c-.889,4.367.133,1.041-1.282,2.888-2.164,1.384-.33.711-1.206,3.281-.908,2.685.121,1.263-1.834,2.463-2.386-.889-2.742-3.453-4.443-6.48l-7.629-13.557c-.666-2.012-1.752-6.049-2.577-7.451-2.247,3.478-1.111,3-5.325,1.428-.628-3.091-.209-.254.755-2.945-3.865-.679-6.417-5.014-9.863-4.862-5.249.228-.451,1.523-11.932-.336-20.12-3.256-19.2-12.687-20.481-5.972Z" transform="translate(-67.561 -35.585)" fill="#fefefe" fill-rule="evenodd"/>
          <path id="Path_1020" data-name="Path 1020" d="M208.348,221.64c-.539,2.862-1.282.616,5.135,2.755l1.929-2.456c8.187-1.5,6.772-8.143,12.668-7.673.876,3.173-1.009,8.016-1.479,11.621-.508,2.939-.051,1.593,2.1,2.456.044.019,3.313.724,3.592.793a41.768,41.768,0,0,1,6.982,2.031l39.262,9.622c-5.7-4.868-9.926-9.85-14.452-14.154-5.166-4.925-8.943-7.972-14.261-13.589-7.654-8.086-13.881-13.252-21.3-20.469-5.528-5.376-5.871-4.557-5.9-8.048-4.506,1.9-5.09,2.24-8.524,6.4-1.9,2.3-5.566,4.563-6.6,7.4-2.183,6,5.427,17.073.85,23.312Z" transform="translate(-75.654 -67.409)" fill="#e9ebec" fill-rule="evenodd"/>
          <path id="Path_1021" data-name="Path 1021" d="M131.254,348.968c6.448-1.745,9.311-1.492,16.375-1.523,5.312-4.138,23.306-9.463,26.048-13.608l.463-.248c-4.3-1.4-12.2-6.626-16.362-9.1-5.1-3.034-10.288-6.055-15.74-9.133-5.058-2.856-28.4-17.1-31.239-17.511-.7,1.358,8.683,22.233,9.85,24.892Z" transform="translate(-40.462 -108.807)" fill="#a2a2a4" fill-rule="evenodd"/>
          <path id="Path_1022" data-name="Path 1022" d="M68.49,174.545l24.823,74.849c1.492-.3,1.3-.33,3.415-2.9l8.644-11.151c.273-4.056-1.333-7.559-3.434-10.758-1.542-2.348-1.009-1.161-2.082-2.374-5.458-6.176,7.585-11.259-2.221-27.069-5.268-8.5-6.137-5.116-4.513-12.078.241-6.963.044-6.01-5.649-7.293-5.319-1.2.222-4.265-8.733-3.173Z" transform="translate(-25.02 -62.966)" fill="#d4d5d7" fill-rule="evenodd"/>
          <path id="Path_1023" data-name="Path 1023" d="M90.289,344.828l1.4-37.174c.019-2.05.26-4,.3-5.972a9.471,9.471,0,0,0-.209-2.723c-.628-2.266,1.758-.343-.958-1.6C86.716,302.1,82.216,307.451,77.8,312c-3.1,3.193-10.345,12.326-13.189,14.185Z" transform="translate(-23.603 -108.628)" fill="#c1c2c2" fill-rule="evenodd"/>
          <path id="Path_1024" data-name="Path 1024" d="M321.05,234.766l1.434-.083c1.733-2.9,16.622-14.008,20.3-16.94,3.776-3.015,6.55-5.046,10.25-8.048,2.285-1.86,8.264-5.719,8.9-8.194-.4-.92.673.641-.685-.711-4.532-4.525-5.141-12.6-7.953-16.223-3.37-3.8-5.674-5.274-9.311-8.873a52.374,52.374,0,0,0-4.563-4.183c-1.891-1.555-2.494-2.875-4.532-3.573l-1.016.013c.6,4.957-4.938,27.469-6.239,33.829-2.088,10.193-5.35,22.944-6.582,32.985Z" transform="translate(-117.284 -61.349)" fill="#e2e3e4" fill-rule="evenodd"/>
          <path id="Path_1025" data-name="Path 1025" d="M59.151,96.775a11.612,11.612,0,0,1-1.3,2.92c1.923,2.945.7,18.533.584,23.306L64.1,139.61l-3.2,1.339a6.6,6.6,0,0,0-.635.254l4.341-.216,10.25-1.948c2.653-.279.444.286,1.384-1.561-1.384-.622-15.816-12.4-16.908-14.579l2.8-1.91c5.839-4.335,46.091-26.9,47.278-30.338-3.313-2.964-4.6-2.044-8.562-3.465-.844-2.7-.178-3,.311-6.061-14.28-2.082-15.848,1.695-19.777,2.374-6.207,1.073-2.977-2.317-10.625,3.326-7.559,5.573-3.548,8.638-11.6,9.952Z" transform="translate(-21.133 -29.408)" fill="#0db47e" fill-rule="evenodd"/>
          <path id="Path_1026" data-name="Path 1026" d="M201.79,305.358c1.517,4.76,3.992,8.873,5.6,13.677l-.463.248c3.256-.26,14.331-9.317,17.416-11.634,5.807-4.373,11.418-8.562,17.175-12.865,4.659-3.484,32.039-24.518,34.54-25.248.438-1.117-.838-.844,1.72-.755l-.3-1.111-.882-.038-39.262-9.622c1.085,4.773.438,10.434.438,15.436l-2.247,1.771c-.241.025-1.46,1.555-1.479-4.627-.013-3.656.07-7.381.07-11.056.635.19,3.173,19.256-2.926,24.169V262.459c1.828.559.724,14.173.724,16.851-.152.1-.413.2-.489.254l-.971,2.088c-.87,5.052,1.1,1.587-2.2,4.246,0-2.634-.717-19.422.724-20.513l-1.46,19.047c-2.6-2.088-1.682,1.149-2.355-4.367l.159-11.742c2.044.616.73,18.818.73,21.973l-1.822-.4c-1.555-1.79-.038-.749.355-1.073,0,7.5.317,2.38-2.19,4.4V271.25c2.069.628.724,19.5.724,22.7-2.45-1.968-1.644-.044-2.234-3.5-.419-2.45.457-1.4.768-1.631,0,5.833.248,4.633-2.19,6.594V274.182c2.069.628.724,19.5.724,22.7-2.444-1.974-1.637-.044-2.234-3.5-.419-2.45.463-1.39.774-1.625,0,5.319-.425,4.436-2.19,5.858V277.108c2.037.622.724,18.838.724,21.973-2.831-2.279-.946.381-2.037-2.748-.844-2.405.286-1.428.571-1.644,0,4.557-.666,3.9-2.19,5.128V277.108c2.133.654.724,20.83.724,24.169-2.856-2.3-.889.463-1.987-2.558-.8-2.19-.216-.546.52-1.1,0,7.5.317,2.38-2.19,4.4,0-2.767-.749-20.869.73-21.973v21.973c-.977.3-1.466.267-2.59-1.085-1.872-2.253-1.066-12.732-1.066-17.955,1.974.6.724,17.5.724,20.507l-1.3-1.2c-3.7-3.84-2.355-8.537-2.355-16.381,1.745.533.724,12.18.724,14.655h-1.466c-.965,5.42-.666,3.884-2.291,4.8Z" transform="translate(-73.716 -94.253)" fill="#d4d7d8" fill-rule="evenodd"/>
          <path id="Path_1027" data-name="Path 1027" d="M220.847,81.871l3.529,10.276c1.282-6.715.362,2.716,20.481,5.972,11.482,1.86,6.683.565,11.932.336,3.446-.152,6,4.183,9.863,4.862-.965,2.691-1.384-.146-.755,2.945,4.214,1.574,3.078,2.05,5.325-1.428.825,1.4,1.91,5.439,2.577,7.451l7.629,13.557c1.7,3.027,2.056,5.592,4.443,6.48,1.955-1.2.927.222,1.834-2.463.876-2.57-.958-1.9,1.206-3.281l-.647-9.666c-3.047-2.1-7.318-11.78-9.679-16.026-2.526-4.551-8.333-13.271-8.556-17.092l-.933-.184-.908.057L219.14,76.54l1.707,5.331Z" transform="translate(-80.055 -27.959)" fill="#26dca2" fill-rule="evenodd"/>
          <path id="Path_1028" data-name="Path 1028" d="M157.58,151.05l1.009,45.989,11.183-11.329c.108-.108.248-.279.362-.394l6.448-7.375c.108-.114.267-.273.368-.4l2.444-3.383c.1-.108.279-.229.387-.33.152-.146.647-.546.8-.7,2.767-3-.5-1.276,3.846-4.2l5.763-7.826c.825-1.085,1.174-.965,1.511-2.2-1.511-2.837-13.119-8.124-16.819-10.206-4.494-2.539-13.227-7.889-17.492-9.165l.19,11.52Z" transform="translate(-57.497 -50.97)" fill="#09c58e" fill-rule="evenodd"/>
          <path id="Path_1029" data-name="Path 1029" d="M84.341,33.484a12.2,12.2,0,0,1,8.219-5.223c-.482,1.422.057,1.961-3.294,3.891a10.867,10.867,0,0,1-4.925,1.333ZM97.688,13.879l-13.36,5.693L58.134,61.055l-.013.33c-.133,1.822-.343,4.17-.311,5.985.07,3.427-.571,2.824,1.307,3.776,8.054-1.314,4.043-4.379,11.6-9.952,7.648-5.642,4.417-2.253,10.625-3.326,3.929-.679,5.5-4.456,19.777-2.374-.489,3.059-1.155,3.364-.311,6.061,3.96,1.422,5.249.5,8.562,3.465l3.275.958a44.119,44.119,0,0,0-3.51-5.547c-1.447-1.9-3.072-2.774-1.644-3.9-1.815-2.3-1.523-.958-2.939-3.554l4.767.349c-1.326-1.638,1.123-.952-3.262-1.434a29.711,29.711,0,0,0-3.186.362l-.965-2.71-3.554,2.2.819-3.288,2.52-.019.654-3.357-3.649,1c2.234-1.117-.184.063,1.142-1.866l-5.465.444c-3.269,2.716.971.711-5.458,3.973-6,3.047-1.593,5.16-10.587,6.982-4.265.863-2.723.984-6.785-.831.908-3.891.7-2.279,2.621-4.824,5.357-7.089-.121-5.268,13.684-6.156l2.234-2.932-.977-2.812c-.831-1.238-1.073,1.58-.622-1.517a13.927,13.927,0,0,0,5.281-.571c2.881-.774,2.6-.457,4.2-2.425l-.952.019-8.333,1.32c3.389-4.43,3.668-4.348,6.423-4.893-1.206-3.58.5-4.354,3.688-6.01l2.31,1.092.038-2.31c.52-1.32,9.552-8.676,11.259-12.414-7.013,1.13-3.5,2.577-13.417,4.024l2.24,1.936C99,18.9,96.806,19.375,93.106,19.623c1.035-2.279-1-1.123,2.006-3.046,1.06-.673,1.206-.349,2.71-.533l-.133-2.164Z" transform="translate(-21.1 -3.779)" fill="#d4d7d8" fill-rule="evenodd"/>
          <path id="Path_1030" data-name="Path 1030" d="M159.064,207.9l-.374,1.206c4.449,1.606,10.326,2.691,15.232,3.967,2.869.743,4.8,1.263,7.54,1.942,6.95,1.707,5.649.578,6.315,2.488a30.579,30.579,0,0,0,2.888-1.441c4.576-6.239-3.034-17.314-.85-23.312,1.035-2.837,4.7-5.1,6.6-7.4,3.434-4.157,4.018-4.494,8.524-6.4,1.212-3.123,4.348-3.427,4.976-8.53-.146-1.771.971-.609-1.066-1.168l-15.436.178-1.238.33c-.336,1.238-.685,1.117-1.511,2.2l-5.763,7.826c-4.341,2.92-1.079,1.193-3.846,4.2-.152.159-.647.559-.8.7-.108.1-.286.222-.387.33l-2.444,3.383c-.1.127-.26.286-.368.4l-6.448,7.375c-.114.114-.254.286-.362.394L159.064,207.9Z" transform="translate(-57.972 -61.828)" fill="#06c58d" fill-rule="evenodd"/>
          <path id="Path_1031" data-name="Path 1031" d="M161.054,52.959c-1.13,2.78-3.224,5.433-4.938,7.984-1,1.485-1.263,1.961-2.31,3.554-1.4,2.152-.914,2.1-3.1,2.97l.368.736c.47,2.031.432,1.5,1.771,2.577,2.767-1.022.908-1.13,4.125-2.405-1.168-.87-4.138-4.132.178-3.834,2.494.178,1.707,1.168,1.942,1.841.584,1.663-.406,1.142,1.193,3.008,2.85,3.332,11.342,2.247,16,1.574-1.53,15.937-16.724,8.854-24.658,7.108-6.594-1.447-3.085,2.056-7.7,3.789,1.657,3.37,3.053,8.34,4.43,12.643,1.333,4.183,2.475,9.241,4.519,12.668l.654-1.231c3.135-2.9,16.146-15.194,17.4-18.3a5.117,5.117,0,0,0-.419-1.346c-.5-1.39.025.235-.552-1.441l2.621-.73,2.348.831c3.529-5.078,13.931-12.338,16.261-17.346l-14.845-6.931c-2.145-1-11.78-5.738-14.439-6.055,1.1-1.447.273-1.587,1.733-2.082l-2.018.806-.565-.387Z" transform="translate(-52.579 -19.192)" fill="#0ac992" fill-rule="evenodd"/>
          <path id="Path_1032" data-name="Path 1032" d="M64.147,126.828c-.825,1.987-2.57,1.91,5.141,1.91l.19,3.542L73.68,128l11.025-.914c6.163-1.168,6.341.051,9.99-.717,1.7-.355-.222-.52,3.224-.736,1.035-.07,2.329.1,3.288.114,4.551.108,4.341-1.079,8.181-1.181l12.719-.958c.1,5.712.044,8.962,1.13,11.716l-.19-11.52.406-.578c-2.044-3.427-3.186-8.486-4.519-12.668-1.377-4.3-2.774-9.273-4.43-12.643l.209-.343-.013-.127-3.275-.958c-1.187,3.434-41.439,26-47.278,30.338Z" transform="translate(-23.152 -35.247)" fill="#0cbd88" fill-rule="evenodd"/>
          <path id="Path_1033" data-name="Path 1033" d="M128.76,257.726c1.606,5.477,2.12,5.046,5.465,8.981,2.97,3.5,1.764,8.41,6.626,8.765l11.812-3.446c3.979-1.961,7.324-2.958,7.572-7.47.73-4.087-4.024-12.288-5.661-16.039-1.409-3.224-4.7-13-6.9-14.877-3.542,3.884-17.536,19.859-18.914,24.086Z" transform="translate(-47.038 -85.35)" fill="#06a872" fill-rule="evenodd"/>
          <path id="Path_1034" data-name="Path 1034" d="M186.537,12.553l-5.826-.958a9.063,9.063,0,0,0,3.256,1.657c-.882,1.974-1.745,3.345-2.634,5.116-1.028,2.031-1.009,3.212-2.8,2.2l-.279,1.295c.146.222,1.244-.178-.387,3.085-.73,1.453-1.453,2.545-2.139,3.8a47.178,47.178,0,0,0-3.929,7.946l2.018-.806,43.387-8.13c1.574-2.647,3.408-17.022,3.212-20.272L217.3,6.962l-3.364-.032c2.5.908,1.663-.063,1.238,3.542-3.459-.14-2.812-.635-5.6-1.257.349,1.39,1.041,1.663,2.069,2.672l-18.634,2c-1.035.489.14.432-2.628,1.771-3.021,1.466-3.668,1.415-5.388-.209a2.357,2.357,0,0,1,.565-.127c2.437-.5,3.351-.286,4.462-1.479l-3.478-1.288Z" transform="translate(-62.761 -2.53)" fill="#0cc68f" fill-rule="evenodd"/>
          <path id="Path_1035" data-name="Path 1035" d="M317.555,121.033a23.875,23.875,0,0,0,4.6-6.772c3.008-5.744.685-3.465,6.195-6.1.774,1.472,1.58,3.446,2.367,4.792,2.888,4.919,2.444.882,3.148,4.684h1.295c1.339-3.529,2.507-6.455,3.865-10l2.9-7.331c1.009-1.492-.159-1.549,1.637-1.1a6.309,6.309,0,0,0-.977-2.463c-1.168-1.879-1.073-1.339-2.05-2.05-.159,2.285-.33,1.79-.47,2.107-8.619-.666-35.562-10.015-40.747-8.879.222,3.821,6.03,12.541,8.556,17.092,2.361,4.246,6.633,13.925,9.679,16.026Z" transform="translate(-109.345 -32.08)" fill="#0ad198" fill-rule="evenodd"/>
          <path id="Path_1036" data-name="Path 1036" d="M119.125,241.5H120.5c1.377-4.227,15.372-20.2,18.914-24.086l.083-1.016c-1.974-2.577-13.544-11.678-16.229-13.766a44.819,44.819,0,0,1-4.367-3.688c-1.377-1.282-2.494-1.91-4.037-3.275-2.564-2.272-5.4-4.97-7.984-6.448-1.625,6.963-.755,3.58,4.513,12.078,9.806,15.81-3.237,20.894,2.221,27.069,1.073,1.212.539.025,2.082,2.374C117.792,233.94,119.4,237.444,119.125,241.5Z" transform="translate(-38.773 -69.123)" fill="#09b17a" fill-rule="evenodd"/>
          <path id="Path_1037" data-name="Path 1037" d="M154.72,374.045c-7.064.032-9.927-.222-16.375,1.523-2.279.679-2.342.159-4.367.349a6.382,6.382,0,0,0-2.075.343c-2.164.647-.254-.432-1.733.99l.146-.273,11.45,3.738c9.755.622,21.668,4.735,31.043,4.532,10.079-.222,21.859-3.846,31.817-3.878a5.541,5.541,0,0,0,2.209-.279c.241-.076.977-.362,1.13-.432,1.365-.641.8-.3,1.669-1.073-2.577-.927-3.941-2.126-6.03-3.459l.984-.267c.114-.051.47-.146.565-.432.114-.343.387-.413.6-.59-3.548.406-6.855,1.885-7.94,1.295,3.161-.895,5.642-2.386,6.379-4.8-6.15-.3-10.517-1.149-16.743-.3-6.982,2.869-6.8,2.234-15.4,2.386-5.693.1-11.513.559-17.327.628Z" transform="translate(-47.553 -135.407)" fill="#028731" fill-rule="evenodd"/>
          <path id="Path_1038" data-name="Path 1038" d="M219.311,62.62a6.255,6.255,0,0,0,1.536,5.782l-1.707-5.331L268.189,70.2a8.974,8.974,0,0,0-2.139-2.488c-5.477-5.585-27.8-24.518-30.738-28.04l-.812.038Z" transform="translate(-80.055 -14.49)" fill="#1fd79f" fill-rule="evenodd"/>
          <path id="Path_1039" data-name="Path 1039" d="M309.367,279.438l2.4-2.6,4.348,40.849c-5.465,3.865-12.5,7.521-17.733,11.691-1.168-.679-1.111,2.12-.863-1.891a1.122,1.122,0,0,0-.222.673,2.5,2.5,0,0,1-.2.666l-.362,1.974c-.057.216-.063.406-.127.616l-1.13,2.133c5.782-2.177,20.266-12.51,24.156-17.308,3.11-3.846,6.195-7.451,9.235-11.3,3.148-3.992,6.937-8.048,9.19-11.691-.616-2.672-1.733-2.266-6.664-5.623-2.551-1.733-4.145-2.805-6.563-4.411-4.659-3.091-8.657-5.528-12.827-8.283-2.558-.089-1.282-.362-1.72.755l-.457.4-.463,3.357Z" transform="translate(-107.943 -100.398)" fill="#b7b8ba" fill-rule="evenodd"/>
          <path id="Path_1040" data-name="Path 1040" d="M18.44,282.031c.394,2.412,7.108,13.2,9.14,16.711,1.663,2.882,1.987,4.3,4.341,5.826,1.054-2.609,3.611-2.374,9.749-4.271,3.281-1.009,30.281-10.447,32.293-9.228,2.716,1.257.33-.666.958,1.6a9.47,9.47,0,0,1,.209,2.723c-.044,1.974-.286,3.922-.3,5.972,1.466-2.367,1.606-7.946,1.193-11.329L18.465,280.14l-.025,1.891Z" transform="translate(-6.736 -102.337)" fill="#afb0b3" fill-rule="evenodd"/>
          <path id="Path_1041" data-name="Path 1041" d="M106.473,307.059l-1.4,37.174,11.558,4.2c3.25,1.428,1.066,1.346,4.373,1.441,1.479-1.422-.432-.343,1.733-.99a6.383,6.383,0,0,1,2.075-.343c2.025-.19,2.088.33,4.367-.349L118.57,321.968c-1.168-2.659-10.555-23.534-9.85-24.892-.647-1.511.908-.552-1.054-1.346.413,3.383.273,8.962-1.193,11.329Z" transform="translate(-38.383 -108.032)" fill="#a7a8aa" fill-rule="evenodd"/>
          <path id="Path_1042" data-name="Path 1042" d="M244.62,35.465c2.939,3.523,25.261,22.455,30.738,28.041a8.972,8.972,0,0,1,2.139,2.488l.908-.057c.051-5.547-.793-32.972.73-35.828-.127-.165-.279-.647-.374-.508s-.3-.381-.438-.463c-1.263-.831.025-.241-1.949-.977-1.987,2.609-26.39,6.017-31.753,7.305Z" transform="translate(-89.363 -10.286)" fill="#13d49b" fill-rule="evenodd"/>
          <path id="Path_1043" data-name="Path 1043" d="M322.484,266.172l-1.434.083.3,1.111c4.17,2.754,8.168,5.192,12.827,8.283,2.418,1.606,4.011,2.678,6.563,4.411,4.931,3.357,6.049,2.951,6.664,5.623,2.64-3.288,12.5-26.187,14.972-30.5-1.987-2,.044-.47-1.549-.7a6.466,6.466,0,0,0-1.06.025Z" transform="translate(-117.284 -92.837)" fill="#c6c6c8" fill-rule="evenodd"/>
          <path id="Path_1044" data-name="Path 1044" d="M1.187,165.689l-.057,2.342C2.247,178.9.127,181.664.019,187.5c-.057,3.008-.076,4.29,1.352,6.588-.063-2.647-.781-6.531.812-8.714,2.348,1.453,3.935,5.865,4.532,9.451,2.951-7.984,4.36-8.809,10.682-17.689,2.19-3.072,3.567-4.786,6.042-7.94,1.32-1.676,2.139-3.142,3-4.322,2.031-2.767,3-1.549,2.691-3.745l-2.4-6.042-25.546,10.6Z" transform="translate(0 -56.655)" fill="#c2c3c5" fill-rule="evenodd"/>
          <path id="Path_1045" data-name="Path 1045" d="M141.4,3.922l3.688-.1c-.806.578.527.025-1.58.971l-3.567,1.047c-1.472.425-3.662,1.016-4.951,1.307-1.707,3.738-10.739,11.094-11.259,12.414l-.038,2.31-2.437,1.142.324,5.135L119.6,30.363l.952-.019,1.5-.025a25.587,25.587,0,0,1,10.041-3.9c1.041-3.18.717-2.171,2.812-4.157a2.58,2.58,0,0,1,1.168,2.171c.013.444.051.019-.267.749-.749,1.695-1.745-1.117-.406.743,2.145,1.079,6.988.444,9.7-.406,1.917-.6,5.331-3.237,6.994-5.388l7.1-.222.279-1.295c-2.837.248-5.617.863-7.718-.336.209-3.294,1.6-2.171,4.125-4.043-.628-.311.076-.343-1.358-.228-1.257.1.1-.165-1.434.4-6.924,2.545-5.008,2.456-5.693,4.3-1.25,3.351-5.2,5.369-8.486,6.226l-1.46-4.329a.878.878,0,0,0-.343-.559c-1.8,1.453-2.037,1.707-4.551,1.32.755-5.268,7.546-5.408,12.8-8.016,5.141-2.551,10.377-4.824,16.3-3.7l5.826.958L166.4,9.19a3.547,3.547,0,0,0-.374-.673L170.02,1.58l-3.954.19L143.337,3.135c-.228.063-.432.152-.641.216l-1.3.571Z" transform="translate(-43.691 -0.576)" fill="#daddde" fill-rule="evenodd"/>
          <path id="Path_1046" data-name="Path 1046" d="M189.07,92.63l5.147,7.426c2.5,2.31.584-.977,2.094,2.285,1.377,2.97-.4,2.831,2.805,5.236,1.593,1.2.438-.171,2.063,1.58a11.679,11.679,0,0,1,1,1.339c1.022,1.295.089.457,1.168,1.422,1.466-1.764-1.022-1.009,6.842-2.139,7.559-1.085,6-1.955,6.385.14,1.726-1.206,1.142-1.2.393-3.941-.393-1.428-.92-2.907-1.472-4.544-1.111-3.25-2.3-6.341-2.4-9.8l.292.254-3.529-10.276a6.255,6.255,0,0,1-1.536-5.782l-.647.286c-2.329,5.008-12.732,12.269-16.261,17.346l-2.348-.831Z" transform="translate(-69.07 -27.7)" fill="#0fd39c" fill-rule="evenodd"/>
          <path id="Path_1047" data-name="Path 1047" d="M299.32,77.9c5.185-1.136,32.128,8.213,40.747,8.879.14-.317.311.178.47-2.107-.406-2.177-15.029-23.388-16.819-24.264-2.92.292-14.795,10.333-18.571,13.017A40.162,40.162,0,0,0,299.32,77.9Z" transform="translate(-109.345 -22.067)" fill="#06d096" fill-rule="evenodd"/>
          <path id="Path_1048" data-name="Path 1048" d="M39.329,310.8l-.609.089c5.617,2.964,11.012,12.5,16.432,15.239,2.843-1.86,10.092-10.993,13.189-14.185,4.417-4.551,8.917-9.9,13.03-14.642-2.012-1.219-29.012,8.219-32.293,9.228-6.137,1.9-8.7,1.663-9.749,4.272Z" transform="translate(-14.145 -108.565)" fill="#a2a2a5" fill-rule="evenodd"/>
          <path id="Path_1049" data-name="Path 1049" d="M364.768,217.755l.584,1.726-2.6-.685c-.635,2.475-6.614,6.334-8.9,8.194-3.7,3-6.474,5.033-10.25,8.048-3.675,2.932-18.565,14.039-20.3,16.94l37.282-11.672a6.467,6.467,0,0,1,1.06-.025c1.593.235-.438-1.295,1.549.7,1.5-3.256,2.532-8.448,3.281-12.586.762-4.2,2.716-8.27,1.968-13.119-1.568,1.7-1.035,1.574-3.681,2.475Z" transform="translate(-118.109 -78.643)" fill="#d1d2d4" fill-rule="evenodd"/>
          <path id="Path_1050" data-name="Path 1050" d="M9.486,115.659c2.577-.762,1.409-.679,3.694,1.384,1.948,1.764,6.918,6.3,7.705,8.143-2.856,4.982-11.786,9.59-16.337,15.766-1.5-.781-.5,1.587-1.358-1.644-1.244,1.276-.736.1-1.32,2.881l25.546-10.6-.6-3.478c.349-5.306,2.621-8.917,3.592-14.9.641-3.9,4.519-7.426,6.994-9.774a11.611,11.611,0,0,0,1.3-2.92c-1.879-.952-1.238-.349-1.307-3.776-.032-1.815.178-4.164.311-5.985l-.844.971c-.127.171-.571.781-.692.984l-14.42,29.7c-.539-7.223-.559-24.772.476-31.474-2.621,1.688-5.312,8.809-6.772,11.678-2.24,4.411-4.779,8.276-5.966,13.036Z" transform="translate(-0.683 -33.154)" fill="#cacbcc" fill-rule="evenodd"/>
          <path id="Path_1051" data-name="Path 1051" d="M297.742,67.058l.933.184a40.16,40.16,0,0,1,5.826-4.475c3.776-2.685,15.651-12.725,18.571-13.017l-.743-2.2c-2.253-.635-15.175-10.606-17.8-12.5l-4.208-3.091c-1.5-.85-.362-.451-1.847-.73C296.948,34.086,297.793,61.511,297.742,67.058Z" transform="translate(-108.7 -11.407)" fill="#0ad198" fill-rule="evenodd"/>
          <path id="Path_1052" data-name="Path 1052" d="M173.983,47.86c-1.46.5-.628.635-1.733,2.082,2.659.317,12.294,5.052,14.439,6.055l14.845,6.931.647-.286L217.37,39.73l-43.387,8.13Z" transform="translate(-62.925 -14.512)" fill="#0bcc95" fill-rule="evenodd"/>
          <path id="Path_1053" data-name="Path 1053" d="M310.456,280.592c.438,5.185-10.111,38.989-11.85,48.046-.248,4.011-.3,1.212.863,1.891,5.236-4.17,12.269-7.826,17.733-11.691l-4.348-40.848Z" transform="translate(-109.031 -101.552)" fill="#c6c6c8" fill-rule="evenodd"/>
          <path id="Path_1054" data-name="Path 1054" d="M158.45,135.588l-.654,1.231-.406.578c4.265,1.276,13,6.626,17.492,9.165,3.7,2.082,15.309,7.369,16.819,10.206l1.238-.33c.819-3.973,3.142-6.074,4.214-9.977-1.085-3.63-3.84-3.7-6.448-6.226-2.748-2.659-2.551-6.3-6.258-6.467-3.764-.463-15.061,1.3-19.783,2.183C157.663,137.263,159.338,136.3,158.45,135.588Z" transform="translate(-57.497 -48.837)" fill="#0ad097" fill-rule="evenodd"/>
          <path id="Path_1055" data-name="Path 1055" d="M171.12,263.971l2.279-.673c3.84-7.47-2.526-2.253,4.792-7.3,3.757-2.589,1.047-5.769,1.53-10.352,2.812-3.066,4.912-3.256,8.01-5.211-.666-1.91.635-.781-6.315-2.488-2.742-.679-4.671-1.2-7.54-1.942-4.906-1.276-10.783-2.361-15.233-3.967l-.082,1.016c2.2,1.879,5.49,11.653,6.9,14.877,1.637,3.751,6.391,11.951,5.661,16.039Z" transform="translate(-57.924 -84.765)" fill="#06b37c" fill-rule="evenodd"/>
          <path id="Path_1056" data-name="Path 1056" d="M228.278,119.015c-.355,2.818-1.32,3.745-2.767,6.575-1.7,3.338-1.168,4.341-4.411,5.249,1.193,1.016-.394.787,2.45.882,2.558.083,2.19-1,6.315-2.38,4.811-1.625,3.929-.787,7.711-4.113,2.475-2.171,5.439-2.45,7.369-4.354a13.258,13.258,0,0,0,3.611-9.057c-1.193-.59-3.154-1.263-4.519-1.948-3.338-1.676-1.441-1.961-4.621-3.294-.762,1.472-1.142,2.913-3.478,3.1-2.742.222-2.361-1.073-3.846-2.482-.1-.1-.26-.248-.368-.343s-.292-.209-.413-.3c-3.891-3.015-3.707-4.3-6.512-5.82.1,3.459,1.288,6.55,2.4,9.8.552,1.637,1.079,3.116,1.473,4.544.749,2.742,1.333,2.736-.394,3.941Z" transform="translate(-80.771 -36.796)" fill="#26dca2" fill-rule="evenodd"/>
          <path id="Path_1057" data-name="Path 1057" d="M355.764,124.048c-.133,1.739-.032,4.151,1.155,5.1l2.164.787c4.145,1.631,4.36,9.723,4.3,10.13l.533,1.066c1.434,3.8,4.6,13.036,4.868,16.464,1.606.7,1.593.52,2.539,1.974.628-10.276-6.766-12.986-6.7-24.232,4.4,2.323,2.824,5.357,6.436,10.295,1.936-3.364-1.123-2.367,2.069-5.592A57.52,57.52,0,0,0,370,129.278c-1.739-3.96-3.846-4.779-3.611-10.333,2.2,2.056.977,2.678,2.774,5.325.2-2.52-.279-2.317-.019-5.135.286-3.116.539-1.891-.806-5-1.066-2.456-2.786-6.81-4.17-8.524-1.8-.444-.628-.387-1.637,1.1l-2.9,7.331c-1.358,3.548-2.526,6.474-3.865,10Z" transform="translate(-129.949 -38.491)" fill="#06c58d" fill-rule="evenodd"/>
          <path id="Path_1058" data-name="Path 1058" d="M106.663,51.4l4.03-.609,3.859,5.661L111.931,58l5.465-.444c3.135-2.666,3.783,1.2,6.455,3,1.346.908,2.945,1.333,3.707,2.158,1.879,2.031-.127,1.891,1.257,3.745,1.879-1.86.66-2.152,2.7-3.123.5-.235-.343.679,1.46-.343-2.958-2.266-6.461-3.58-7.585-7.857,4.754-.7-1.739-1.263,6.8,3.7,3.1,1.8,1.409.635,2.228,2.767,1.111,2.875-.2,1.384,2.367,3.789,2.183-.87,1.695-.819,3.1-2.97,1.047-1.593,1.314-2.069,2.31-3.554,1.714-2.551,3.808-5.2,4.938-7.984A300.946,300.946,0,0,1,117.015,47.8V46.86l-1.5.025c-1.6,1.968-1.314,1.65-4.2,2.425a13.927,13.927,0,0,1-5.281.571C105.591,52.978,105.832,50.16,106.663,51.4Z" transform="translate(-38.656 -17.117)" fill="#0dbe89" fill-rule="evenodd"/>
          <path id="Path_1059" data-name="Path 1059" d="M35.19,64.593c-.127.171-.489.673-.6.844-.939,1.555-.1-.552-.654,1.447l15.493-.514c3.459-3.053,17.676-10.587,20.945-22.4L75.664,24.9,48.982,46.08,35.19,64.593Z" transform="translate(-12.399 -9.095)" fill="#d3d3d5" fill-rule="evenodd"/>
          <path id="Path_1060" data-name="Path 1060" d="M217.91,365.68c6.226-.844,10.593,0,16.743.3-.736,2.412-3.218,3.9-6.379,4.8,1.085.59,4.392-.889,7.94-1.295,4.417-1.8,4.83-1.155,8.9-2.323,3.929-1.117,3.63-2.551,9.425-2.317l.546,2.564,10.5-6.861L213.55,356.02c2.285,2.221,9.876,7.832,11.729,8.175-.616,0-3.383-.114-3.751-.057l-3.618,1.542Z" transform="translate(-78.013 -130.057)" fill="#a1a1a3" fill-rule="evenodd"/>
          <path id="Path_1061" data-name="Path 1061" d="M243.34,28.062l.812-.038c5.363-1.288,29.767-4.7,31.753-7.305L246.551,7.79c.2,3.25-1.638,17.625-3.212,20.272Z" transform="translate(-88.895 -2.844)" fill="#0ac992" fill-rule="evenodd"/>
          <path id="Path_1062" data-name="Path 1062" d="M123.46,40.865V41.8a300.945,300.945,0,0,0,30.116,3.085l.565.387a47.175,47.175,0,0,1,3.929-7.946c.685-1.25,1.409-2.342,2.139-3.8,1.631-3.262.533-2.862.387-3.085l-7.1.222c-1.663,2.152-5.077,4.786-6.994,5.389-2.71.85-7.553,1.485-9.7.406-1.339-1.86-.343.952.406-.743.317-.73.279-.3.267-.749a2.58,2.58,0,0,0-1.168-2.171c-2.094,1.987-1.771.977-2.812,4.157a25.587,25.587,0,0,0-10.041,3.9Z" transform="translate(-45.102 -11.122)" fill="#0dba85" fill-rule="evenodd"/>
          <path id="Path_1063" data-name="Path 1063" d="M328.05,132.741l.647,9.666c1.415-1.847.393,1.479,1.282-2.888a21.621,21.621,0,0,0,.07-3.154c1.606,4.779,6.188,8.372,6.379,14.027l1.016-.013c.685-6.429,6.467-13.468,6.918-21.034-.7-3.8-.26.235-3.148-4.684-.787-1.346-1.593-3.319-2.367-4.792-5.509,2.634-3.186.355-6.195,6.1a23.876,23.876,0,0,1-4.6,6.772Z" transform="translate(-119.841 -43.788)" fill="#fafafa" fill-rule="evenodd"/>
          <path id="Path_1064" data-name="Path 1064" d="M170.511,80.763c.863-.711-.33-.628,1.479-.793,3.294-.3.711.165,1.5,1.123Zm-17.041-.736c.1-.07-.133-2.7,4.36-.032-.552.514,1.181.9-1.993,1C152.911,81.093,153.685,80.172,153.469,80.026ZM151.077,75.1c-.781,3.383-7.2,7.3-6.937,13.316l-.209.343c4.614-1.733,1.1-5.236,7.7-3.789,7.934,1.745,23.128,8.829,24.658-7.108-4.659.673-13.151,1.758-16-1.574-1.6-1.866-.609-1.346-1.193-3.008-.235-.673.552-1.663-1.942-1.841-4.316-.3-1.346,2.964-.178,3.834-3.218,1.276-1.358,1.384-4.125,2.405-1.339-1.073-1.3-.546-1.771-2.577Z" transform="translate(-52.579 -26.089)" fill="#eceeef" fill-rule="evenodd"/>
          <path id="Path_1065" data-name="Path 1065" d="M48.936,90.57l.013-.33-15.493.514c-1.035,6.7-1.015,24.251-.476,31.474l14.42-29.7c.121-.2.565-.812.692-.984Z" transform="translate(-11.915 -32.964)" fill="#c6c6c8" fill-rule="evenodd"/>
          <path id="Path_1066" data-name="Path 1066" d="M206.791,7.057l.533-1.161c.774-.844-1.447-1.219,5.376-1.4-2.171,2.234-.076,1.022-2.71,1.6a11.383,11.383,0,0,0,1.288,1.39l1.212,1.155c-2.393.406-4.8.819-5.7-1.587Zm-12.662,2.964,3.478,1.288c-1.111,1.193-2.025.984-4.462,1.479a2.358,2.358,0,0,0-.565.127c1.72,1.625,2.367,1.676,5.389.209,2.767-1.339,1.593-1.282,2.628-1.771l18.634-2c-1.028-1.009-1.72-1.282-2.069-2.672,2.793.622,2.145,1.117,5.6,1.257.425-3.605,1.263-2.634-1.238-3.542l3.364.032c-1.168-1.428-.222-.552-2.031-1.314-1.841-.774.076-.2-1.923-.539-.755-.121-3.123-.133-4.094-.152a50.49,50.49,0,0,1-8.53-.781L196.813,0c-2.964-.006-2.609-.044-4.087,1.193L196.68,1l-3.992,6.937a3.548,3.548,0,0,1,.374.673l1.066,1.409Z" transform="translate(-70.352 0.002)" fill="#e6e9ea" fill-rule="evenodd"/>
          <path id="Path_1067" data-name="Path 1067" d="M159.06,126.144c.889.711-.787,1.676,6.214.362,4.722-.882,16.02-2.647,19.783-2.183a49.361,49.361,0,0,1-1.295-5.223c-.933-3.478-.774-.273-4.29-7.261-.209-.425-.819-1.53-1.047-1.853l-1.968-2.145C175.206,110.95,162.2,123.244,159.06,126.144Z" transform="translate(-58.107 -39.394)" fill="#0fd39c" fill-rule="evenodd"/>
          <path id="Path_1068" data-name="Path 1068" d="M166.917,23.078c1.79,1.016,1.771-.165,2.8-2.2.889-1.771,1.752-3.142,2.634-5.116a9.063,9.063,0,0,1-3.256-1.657c-5.922-1.123-11.158,1.149-16.3,3.7-5.249,2.609-12.04,2.748-12.8,8.016,2.513.387,2.755.133,4.551-1.32a.878.878,0,0,1,.343.559l1.46,4.329c3.288-.857,7.235-2.875,8.486-6.226.685-1.841-1.231-1.752,5.693-4.3,1.53-.565.178-.3,1.434-.4,1.434-.114.73-.083,1.358.228-2.526,1.872-3.916.749-4.125,4.043,2.1,1.2,4.881.584,7.718.336Z" transform="translate(-51.144 -5.045)" fill="#0dba85" fill-rule="evenodd"/>
          <path id="Path_1069" data-name="Path 1069" d="M3.95,153.384c.863,3.231-.14.863,1.358,1.644,4.551-6.176,13.481-10.783,16.337-15.766-.787-1.847-5.757-6.379-7.705-8.143-2.285-2.063-1.117-2.145-3.694-1.384-1.39,2.786-6.366,20.881-6.3,23.648Z" transform="translate(-1.443 -47.231)" fill="#c6c6c8" fill-rule="evenodd"/>
          <path id="Path_1070" data-name="Path 1070" d="M41.17,148.185l.6,3.478,2.4,6.042c.616,3.929.4,2.355,3,4.456,1.98,1.593,1.625,2.3,3.834,4.043l3.161-1.181a6.6,6.6,0,0,1,.635-.254L58,163.43l-5.661-16.61c-2.018.083-7.908.057-9.482-1.111C42.23,150.7,43.176,146.135,41.17,148.185Z" transform="translate(-15.04 -53.228)" fill="#0da46b" fill-rule="evenodd"/>
          <path id="Path_1071" data-name="Path 1071" d="M102.31,60.26l2.621-1.549-3.859-5.661-4.03.609.977,2.812L95.785,59.4c-13.8.889-8.327-.933-13.684,6.156-1.923,2.545-1.714.933-2.621,4.824,4.062,1.815,2.52,1.695,6.785.831,8.994-1.822,4.582-3.935,10.587-6.982,6.429-3.262,2.19-1.257,5.458-3.973Z" transform="translate(-29.035 -19.378)" fill="#0eb581" fill-rule="evenodd"/>
          <path id="Path_1072" data-name="Path 1072" d="M41.17,135.41c2.006-2.05,1.06,2.52,1.688-2.475,1.574,1.168,7.464,1.193,9.482,1.111.114-4.773,1.339-20.361-.584-23.306-2.475,2.348-6.353,5.871-6.994,9.774C43.791,126.493,41.519,130.1,41.17,135.41Z" transform="translate(-15.04 -40.453)" fill="#0ead79" fill-rule="evenodd"/>
          <path id="Path_1073" data-name="Path 1073" d="M342.85,155.834l15.3-3.04.539-1.98c.057-.406-.159-8.5-4.3-10.13l-2.164-.787c-1.187-.946-1.288-3.357-1.155-5.1h-1.295C349.317,142.365,343.535,149.4,342.85,155.834Z" transform="translate(-125.247 -49.243)" fill="#ebeced" fill-rule="evenodd"/>
          <path id="Path_1074" data-name="Path 1074" d="M123.4,62.057c-1.326,1.929,1.092.749-1.142,1.866l3.649-1-.654,3.357.216,1.1.965,2.71a29.715,29.715,0,0,1,3.186-.362c4.386.482,1.936-.2,3.262,1.434-.914,3.116.127,1.561-1.828,3.205-1.428,1.13.2,2,1.644,3.9a44.118,44.118,0,0,1,3.51,5.547l.013.127c-.26-6.017,6.156-9.933,6.937-13.316l-.368-.736c-2.57-2.405-1.257-.914-2.367-3.789-.819-2.133.87-.965-2.228-2.767-8.537-4.963-2.044-4.4-6.8-3.7,1.123,4.278,4.627,5.592,7.585,7.857-1.8,1.022-.958.108-1.46.343-2.044.971-.825,1.263-2.7,3.123-1.384-1.853.622-1.714-1.257-3.745-.762-.825-2.361-1.25-3.707-2.158-2.672-1.8-3.319-5.668-6.455-3Z" transform="translate(-44.663 -21.619)" fill="#e2e5e5" fill-rule="evenodd"/>
          <path id="Path_1075" data-name="Path 1075" d="M342.85,165.05c2.037.7,2.64,2.018,4.532,3.573a52.381,52.381,0,0,1,4.563,4.183c3.637,3.6,5.941,5.071,9.311,8.873l-4.119-11.342c3.808.622,3.675,2.456,5.312,5.192l1.637,2.031c-.267-3.427-3.434-12.662-4.868-16.464l-.533-1.066-.539,1.98Z" transform="translate(-125.247 -58.459)" fill="#dee0e1" fill-rule="evenodd"/>
          <path id="Path_1076" data-name="Path 1076" d="M213.4,163.787l15.436-.178c2.037.559.92-.6,1.066,1.168l1.637-1.384c1.872-3.789,3.478-4.316,3.059-9.146-3.148.958-11.475,3.1-15.017,1l-1.968-1.434C216.542,157.713,214.219,159.814,213.4,163.787Z" transform="translate(-77.958 -56.187)" fill="#22daa1" fill-rule="evenodd"/>
          <path id="Path_1077" data-name="Path 1077" d="M2.036,211.524a93.036,93.036,0,0,0,2.577,15.823c1.193,4.678,3.834,10.441,3.834,14.731,1-1.06,1.035-1.333.622-4.379-.654-4.874-2.082-11.405-1.834-15.48l.146-9.958c-.6-3.586-2.183-8-4.532-9.451-1.593,2.183-.876,6.068-.812,8.714Z" transform="translate(-0.665 -74.087)" fill="#0da46b" fill-rule="evenodd"/>
          <path id="Path_1078" data-name="Path 1078" d="M229.59,250.42c-3.98-.7-7.178-2.291-10.9-2.164,1.492,7.312-.2,5.033-.406,10.079-.171,4.062,3.364,5.065,6.556,4.24.895-1.269,3.941-9.482,4.747-12.154Z" transform="translate(-79.741 -90.687)" fill="#06b37c" fill-rule="evenodd"/>
          <path id="Path_1079" data-name="Path 1079" d="M211.57,130.8l2.19,5.389c.825,2.7.99,4.64,3.859,4.436,3.243-.908,2.71-1.91,4.411-5.249,1.447-2.831,2.412-3.757,2.767-6.575-.387-2.094,1.174-1.225-6.385-.14C210.548,129.795,213.036,129.04,211.57,130.8Z" transform="translate(-77.289 -46.586)" fill="#0ad198" fill-rule="evenodd"/>
          <path id="Path_1080" data-name="Path 1080" d="M219.736,239.04l-.806,3.04c3.719-.127,6.918,1.46,10.9,2.164l1.1-1.257c.47-3.605,2.355-8.448,1.479-11.621-5.9-.47-4.481,6.169-12.668,7.673Z" transform="translate(-79.978 -84.511)" fill="#06c58d" fill-rule="evenodd"/>
          <path id="Path_1081" data-name="Path 1081" d="M369.479,187.612c2.812,3.618,3.421,11.7,7.953,16.223,1.358,1.352.286-.209.685.711l2.6.685-.584-1.726c-1.549-4.214-.889.647-3.205-3.415-1-1.739-.692-4.138-1.041-6.245a52.081,52.081,0,0,0-3.573-10.352l-1.638-2.031c-1.637-2.736-1.5-4.57-5.312-5.192l4.119,11.342Z" transform="translate(-133.471 -64.392)" fill="#02ba83" fill-rule="evenodd"/>
          <path id="Path_1082" data-name="Path 1082" d="M248.022,374.555c-.216.178-.489.248-.6.59-.1.286-.451.381-.565.432l-.984.267c2.088,1.333,3.453,2.532,6.03,3.459,4.348.565,10.39-5.979,15-6.823l-.546-2.564c-5.795-.235-5.5,1.2-9.425,2.317C252.852,373.4,252.439,372.752,248.022,374.555Z" transform="translate(-89.819 -135.124)" fill="#007c17" fill-rule="evenodd"/>
          <path id="Path_1083" data-name="Path 1083" d="M389.006,194.928c1.606-3.554,1.409-16.756-.1-20.818-.768,1.752-.432,3.294-.971,5.185-.673,2.386-1.917,3.008-2.3,5.033a22.483,22.483,0,0,0,.381,6.525c.559,3.535.279,2.837,2.989,4.075Z" transform="translate(-140.83 -63.603)" fill="#07b882" fill-rule="evenodd"/>
          <path id="Path_1084" data-name="Path 1084" d="M118.032,11.965l.133,2.164c-1.5.184-1.65-.14-2.71.533-3.008,1.923-.971.768-2.006,3.046,3.7-.248,5.89-.724,8.111-3.313l-2.24-1.936c9.914-1.447,6.4-2.894,13.417-4.024,1.288-.292,3.478-.882,4.951-1.307l3.567-1.047c2.107-.946.774-.394,1.58-.971l-3.688.1c-3.865.914-7.121,1.929-10.6,2.983C124.76,9.337,121.225,11.013,118.032,11.965Z" transform="translate(-41.445 -1.865)" fill="#68c6a9" fill-rule="evenodd"/>
          <path id="Path_1085" data-name="Path 1085" d="M114.8,41.414l1.974-2.215-.324-5.135,2.437-1.142-2.31-1.092c-3.192,1.657-4.893,2.431-3.688,6.01-2.755.546-3.034.463-6.423,4.893l8.333-1.32Z" transform="translate(-38.895 -11.626)" fill="#16b987" fill-rule="evenodd"/>
          <path id="Path_1086" data-name="Path 1086" d="M327.41,163.329c1.644,2.355.038,2.558,2.069,5.509,1.758-.514,2.386-1.3,3.021-3.275-1.657-1.441-2-3.319-4.291-4.373Z" transform="translate(-119.607 -58.883)" fill="#13d49b" fill-rule="evenodd"/>
          <path id="Path_1087" data-name="Path 1087" d="M99.64,43.793a10.867,10.867,0,0,0,4.925-1.333c3.351-1.929,2.812-2.469,3.294-3.891a12.2,12.2,0,0,0-8.219,5.223Z" transform="translate(-36.4 -14.089)" fill="#26b88a" fill-rule="evenodd"/>
          <path id="Path_1088" data-name="Path 1088" d="M214.97,9.648c.9,2.405,3.307,1.993,5.7,1.587l-1.212-1.155a11.382,11.382,0,0,1-1.288-1.39c2.634-.578.539.635,2.71-1.6-6.823.178-4.6.552-5.376,1.4,3.421-.317,1.4-.927,2.126,1.161-1.206.793-1.25.52-2.659,0Z" transform="translate(-78.531 -2.589)" fill="#88dac3" fill-rule="evenodd"/>
          <path id="Path_1089" data-name="Path 1089" d="M134.429,81.064c1.955-1.644.914-.089,1.828-3.205l-4.766-.349c1.415,2.6,1.123,1.257,2.939,3.554Z" transform="translate(-48.035 -28.314)" fill="#15c18d" fill-rule="evenodd"/>
          <path id="Path_1090" data-name="Path 1090" d="M158.96,84.274c.216.146-.559,1.066,2.367.971,3.173-.1,1.441-.489,1.993-1C158.827,81.57,159.055,84.2,158.96,84.274Z" transform="translate(-58.07 -30.337)" fill="#27c898" fill-rule="evenodd"/>
          <path id="Path_1091" data-name="Path 1091" d="M125.274,71.464l-.216-1.1-2.52.019-.819,3.288Z" transform="translate(-44.466 -25.702)" fill="#16b987" fill-rule="evenodd"/>
          <path id="Path_1092" data-name="Path 1092" d="M214.97,10.259c1.409.52,1.453.793,2.659,0-.73-2.088,1.295-1.479-2.126-1.161Z" transform="translate(-78.531 -3.2)" fill="#17c995" fill-rule="evenodd"/>
          <path id="Path_1093" data-name="Path 1093" d="M185.81,85.63l2.977.33c-.787-.958,1.8-1.428-1.5-1.123C185.48,85,186.673,84.919,185.81,85.63Z" transform="translate(-67.879 -30.957)" fill="#36cda1" fill-rule="evenodd"/>
        </g>
      </g>
    </g>
    <path id="Path_1109" data-name="Path 1109" d="M164.144,28.331V62.987c0,4.11-.715,6.758-3.762,8.316L127.755,90.231c-2.853,1.646-5.162,1.884-8.639-.123L88.085,72.131c-3.385-1.676-5.091-3.453-5.047-7.985l.071-37c0-3.628,1.21-5.57,4.6-7.525L119.384,1.279c2.9-1.673,5.247-1.81,8.768.222L158.84,19.39c4.094,2.339,5.252,3.971,5.3,8.941Z" transform="translate(128.739 429.746)" fill="#c2d423" fill-rule="evenodd"/>
    <path id="Path_1110" data-name="Path 1110" d="M46.762,10.14v12.4c0,1.472-.257,2.419-1.347,2.976L33.739,32.291a2.681,2.681,0,0,1-3.092-.043l-11.1-6.434a2.7,2.7,0,0,1-1.806-2.858l.026-13.242a2.717,2.717,0,0,1,1.645-2.693L30.743.459a2.728,2.728,0,0,1,3.138.079l10.982,6.4a3,3,0,0,1,1.9,3.2ZM38.67,13.62v5.487c0,.651-.113,1.07-.6,1.316l-5.166,3A1.186,1.186,0,0,1,31.54,23.4l-4.913-2.846a1.194,1.194,0,0,1-.8-1.264l.011-5.859a1.2,1.2,0,0,1,.728-1.191l5.016-2.9a1.207,1.207,0,0,1,1.388.035L37.83,12.2a1.327,1.327,0,0,1,.84,1.416Z" transform="translate(275.148 504.848)" fill="#21d7ce" fill-rule="evenodd"/>
    <g id="Group_243" data-name="Group 243" transform="translate(402.352 153.946)">
      <path id="Path_1111" data-name="Path 1111" d="M123.145,159.127c3.834,2.189,4.918,3.716,4.968,8.365v32.42c0,3.846-.674,6.321-3.526,7.781L94.064,225.4c-2.667,1.544-4.828,1.763-8.084-.112l-29.03-16.819C53.785,206.9,52.19,205.24,52.229,201l.067-34.615c0-3.4,1.134-5.21,4.3-7.04l29.636-17.156c2.712-1.566,4.912-1.7,8.2.208Zm-25.6,21.507v6.3c0,.747-.129,1.229-.685,1.51L90.926,191.9a1.367,1.367,0,0,1-1.572-.022L83.712,188.6a1.374,1.374,0,0,1-.921-1.454l.017-6.731a1.377,1.377,0,0,1,.831-1.364l5.766-3.34a1.387,1.387,0,0,1,1.594.045l5.58,3.25A1.521,1.521,0,0,1,97.545,180.634Z" transform="translate(-52.229 -140.987)" fill="#21d7ce" fill-rule="evenodd"/>
      <path id="Path_1112" data-name="Path 1112" d="M68.075,338.447v28.5c0,3.382-.588,5.559-3.094,6.84L38.146,389.353c-2.347,1.357-4.247,1.551-7.106-.1L5.521,374.47c-2.787-1.376-4.186-2.84-4.152-6.567l.061-30.433c0-2.984.993-4.581,3.78-6.188L31.264,316.2c2.381-1.376,4.315-1.49,7.208.182l25.242,14.712C67.078,333.018,68.033,334.36,68.075,338.447Z" transform="translate(3.22 -309.969)" fill="none" stroke="#22b7cb" stroke-miterlimit="22.926" stroke-width="1" stroke-dasharray="3 3" fill-rule="evenodd"/>
    </g>
  </g>
</svg>
