<svg xmlns="http://www.w3.org/2000/svg" viewBox="0 0 48 48"><title>light 3 4</title><g class="nc-icon-wrapper" stroke-linecap="square" stroke-linejoin="miter" stroke-width="4" fill="#3c54a5" stroke="#3c54a5"><line data-cap="butt" fill="none" stroke="#3c54a5" stroke-miterlimit="10" x1="20.014" y1="11.014" x2="36.986" y2="27.986" stroke-linecap="butt"/> <path data-cap="butt" fill="none" stroke="#3c54a5" stroke-miterlimit="10" d="M18.655,23.688L4.172,38.172 c-1.562,1.562-1.562,4.095,0,5.657l0,0c1.562,1.562,4.095,1.562,5.657,0l14.481-14.481" stroke-linecap="butt"/> <path fill="none" stroke="#3c54a5" stroke-miterlimit="10" d="M22.757,28.071 l-2.828-2.828c-3.905-3.905-3.905-10.237,0-14.142L24,7l17,17l-4.101,4.071C32.994,31.976,26.663,31.976,22.757,28.071z"/> <line fill="none" stroke="#3c54a5" stroke-miterlimit="10" x1="6.343" y1="36" x2="12" y2="41.657"/> <line data-color="color-2" fill="none" stroke-miterlimit="10" x1="40" y1="8" x2="43" y2="5"/> <line data-color="color-2" fill="none" stroke-miterlimit="10" x1="32" y1="2" x2="32" y2="5"/> <line data-color="color-2" fill="none" stroke-miterlimit="10" x1="43" y1="16" x2="46" y2="16"/></g></svg>