<svg id="Camada_x0020_1" xmlns="http://www.w3.org/2000/svg" width="58.06" height="359.818" viewBox="0 0 58.06 359.818">
  <g id="_2303277383136" transform="translate(0)">
    <path id="Path_185" data-name="Path 185" d="M11.55,1.13h0a2.694,2.694,0,0,1,2.7,2.689V349.744a2.713,2.713,0,0,1-2.7,2.689h0a2.707,2.707,0,0,1-2.67-2.689V3.819A2.687,2.687,0,0,1,11.55,1.13Z" transform="translate(17.465 2.246)" fill="#e8eaf0" fill-rule="evenodd"/>
    <path id="Path_186" data-name="Path 186" d="M26.085,1.49A24.769,24.769,0,1,1,1.49,26.259,24.7,24.7,0,0,1,26.085,1.49Z" transform="translate(2.931 2.962)" fill="#ed2f59" fill-rule="evenodd"/>
    <path id="Path_187" data-name="Path 187" d="M29.015,0a28.871,28.871,0,0,1,20.53,8.575,29.323,29.323,0,0,1,0,41.321,28.829,28.829,0,0,1-41.031,0,29.323,29.323,0,0,1,0-41.321A28.8,28.8,0,0,1,29.015,0Zm14.27,14.879a20.062,20.062,0,0,0-28.511,0,20.407,20.407,0,0,0,0,28.713,20.062,20.062,0,0,0,28.511,0,20.407,20.407,0,0,0,0-28.713Z" transform="translate(0)" fill="#e8eaf0"/>
    <path id="Path_188" data-name="Path 188" d="M26.085,27.78A24.769,24.769,0,1,1,1.49,52.549,24.676,24.676,0,0,1,26.085,27.78Z" transform="translate(2.931 55.221)" fill="#ed2f59" fill-rule="evenodd"/>
    <path id="Path_189" data-name="Path 189" d="M29.015,26.29a28.845,28.845,0,0,1,20.53,8.545,29.36,29.36,0,0,1,0,41.351,28.9,28.9,0,0,1-41.031,0,29.36,29.36,0,0,1,0-41.351,28.775,28.775,0,0,1,20.5-8.545Zm14.27,14.849a20.407,20.407,0,1,0,5.9,14.371A20.164,20.164,0,0,0,43.285,41.139Z" transform="translate(0 52.259)" fill="#e8eaf0"/>
    <path id="Path_190" data-name="Path 190" d="M26.085,52.64A24.769,24.769,0,1,1,1.49,77.409,24.676,24.676,0,0,1,26.085,52.64Z" transform="translate(2.931 104.637)" fill="#ed2f59" fill-rule="evenodd"/>
    <path id="Path_191" data-name="Path 191" d="M29.015,51.14a28.871,28.871,0,0,1,20.53,8.575,29.323,29.323,0,0,1,0,41.321,28.829,28.829,0,0,1-41.031,0,29.323,29.323,0,0,1,0-41.321,28.8,28.8,0,0,1,20.5-8.575Zm14.27,14.879a20.062,20.062,0,0,0-28.511,0,20.407,20.407,0,0,0,0,28.713,20.062,20.062,0,0,0,28.511,0,20.407,20.407,0,0,0,0-28.713Z" transform="translate(0 101.655)" fill="#e8eaf0"/>
    <path id="Path_192" data-name="Path 192" d="M26.085,77.5A24.754,24.754,0,1,1,1.49,102.239,24.67,24.67,0,0,1,26.085,77.5Z" transform="translate(2.931 154.053)" fill="#ed2f59" fill-rule="evenodd"/>
    <path id="Path_193" data-name="Path 193" d="M29.015,76a28.871,28.871,0,0,1,20.53,8.575,29.323,29.323,0,0,1,0,41.321,28.829,28.829,0,0,1-41.031,0,29.323,29.323,0,0,1,0-41.321A28.8,28.8,0,0,1,29.015,76Zm14.27,14.879a20.062,20.062,0,0,0-28.511,0,20.407,20.407,0,0,0,0,28.713,20.062,20.062,0,0,0,28.511,0,20.407,20.407,0,0,0,0-28.713Z" transform="translate(0 151.071)" fill="#e8eaf0"/>
    <path id="Path_194" data-name="Path 194" d="M26.085,102.35A24.769,24.769,0,1,1,1.49,127.119,24.676,24.676,0,0,1,26.085,102.35Z" transform="translate(2.931 203.449)" fill="#ed2f59" fill-rule="evenodd"/>
    <path id="Path_195" data-name="Path 195" d="M29.015,100.86a28.845,28.845,0,0,1,20.53,8.545,29.36,29.36,0,0,1,0,41.351,28.829,28.829,0,0,1-41.031,0,29.36,29.36,0,0,1,0-41.351,28.775,28.775,0,0,1,20.5-8.545Zm14.27,14.879a20.062,20.062,0,0,0-28.511,0,20.407,20.407,0,0,0,0,28.713,20.062,20.062,0,0,0,28.511,0,20.407,20.407,0,0,0,0-28.713Z" transform="translate(0 200.488)" fill="#e8eaf0"/>
    <path id="Path_196" data-name="Path 196" d="M7.851,8.85H29.6a2.643,2.643,0,0,1,2.611,2.629v.3A2.65,2.65,0,0,1,29.6,14.437H7.851A2.65,2.65,0,0,1,5.24,11.778v-.3A2.643,2.643,0,0,1,7.851,8.85Z" transform="translate(10.306 17.592)" fill="#fff" fill-rule="evenodd"/>
    <path id="Path_197" data-name="Path 197" d="M7.851,35.14H29.6a2.624,2.624,0,0,1,2.611,2.629v.3A2.643,2.643,0,0,1,29.6,40.7H7.851A2.624,2.624,0,0,1,5.24,38.068v-.3A2.6,2.6,0,0,1,7.851,35.14Z" transform="translate(10.306 69.851)" fill="#fff" fill-rule="evenodd"/>
    <path id="Path_198" data-name="Path 198" d="M7.851,59.99H29.6a2.65,2.65,0,0,1,2.611,2.659v.3A2.643,2.643,0,0,1,29.6,65.577H7.851A2.624,2.624,0,0,1,5.24,62.948v-.3A2.631,2.631,0,0,1,7.851,59.99Z" transform="translate(10.306 119.247)" fill="#fff" fill-rule="evenodd"/>
    <path id="Path_199" data-name="Path 199" d="M7.851,84.85H29.6a2.643,2.643,0,0,1,2.611,2.629v.329A2.643,2.643,0,0,1,29.6,90.437H7.851A2.624,2.624,0,0,1,5.24,87.808v-.329A2.624,2.624,0,0,1,7.851,84.85Z" transform="translate(10.306 168.663)" fill="#fff" fill-rule="evenodd"/>
    <path id="Path_200" data-name="Path 200" d="M7.851,109.71H29.6a2.643,2.643,0,0,1,2.611,2.629v.3A2.65,2.65,0,0,1,29.6,115.3H7.851a2.631,2.631,0,0,1-2.611-2.659v-.3A2.624,2.624,0,0,1,7.851,109.71Z" transform="translate(10.306 218.079)" fill="#fff" fill-rule="evenodd"/>
  </g>
</svg>
