<svg xmlns="http://www.w3.org/2000/svg" width="81.987" height="94.526" viewBox="0 0 81.987 94.526">
  <g id="Group_55" data-name="Group 55" transform="translate(0)">
    <g id="_2591435195760">
      <path id="Path_126" data-name="Path 126" d="M1364.219,787.2c-.315-2.005,2.612-2.371,2.838-.552A1.446,1.446,0,0,1,1364.219,787.2Zm19.519-3.312,2.805.17-.2.812c.161,3.889-2.475,6.447-6.264,6.471-4.241.016-8.844.146-13.052-.024a4.493,4.493,0,0,0-1.338-8.728c-5.474-.049-5.635,7.745-1.371,8.7l-13.9.008a5.9,5.9,0,0,1-4.345-2.631c-1.072-1.6-1.064-3.962-.943-6.171,3.289-.244,15.745-.041,19.994-.032,4,.008,11.263-.162,14.963-.016C1381.609,782.518,1381.779,783.972,1383.738,783.891Zm-45.866-12.512,4.152.008c0,4.677-.1,9.451,0,14.111a8.8,8.8,0,0,0,5.8,8.257c2.8,1.039,22.88.544,27.516.544-.387.763-3.58,3.3-4.6,4.084a23.713,23.713,0,0,1-5.66,3.256c-2.911,1.137-4.442,1.226-7.312.195-1.37-.5-2.056.723-2.693,1.364a30.957,30.957,0,0,0-2.225,2.29c-1.161-.414-9.949-6.828-11.892-8.054a23.92,23.92,0,0,1-3.87-2.866c.968-.706,3.773-2.947,3.6-4.279-.185-1.4-4.345-4.052-4.217-12.041.016-1.4.411-6.235,1.4-6.869Zm44.3,7.819c-.782-3.7,3.983-3.085,5.087-3.085,2.475,0,5.732-.52,6.216,1.989a2.523,2.523,0,0,1-1.225,2.687c-.975.593-2.628.349-3.854.341C1385.89,781.13,1382.7,781.658,1382.173,779.2Zm-.008-8.005c-.758-3.637,3.967-3.061,5.1-3.061,2.475-.008,5.7-.511,6.216,1.965.75,3.686-4.1,3.053-5.079,3.053C1385.866,773.149,1382.689,773.733,1382.165,771.192Zm1.83-10.953a43.648,43.648,0,0,1,7.844.057,2.5,2.5,0,0,1-.1,4.75,40.243,40.243,0,0,1-7.973-.041A2.506,2.506,0,0,1,1384,760.239Zm-19.906,1.535c-1.072,0-2.773.26-3.313-.5-.83-1.185.121-2.16,1.508-2.16l1.895.008Zm-34.111-9.451,34.054-.008-.04,3.978c-2.249.008-6.3-.2-6.546,4.035a4.3,4.3,0,0,0,1.717,3.719c1.29,1.031,2.967.828,4.877.828v3.694h-26.734c-6.667,0-7.328.82-7.328-2.9V752.323Zm53.976,0a41.549,41.549,0,0,1,7.724-.065,2.538,2.538,0,0,1,.218,4.758,39.836,39.836,0,0,1-8,.057,2.457,2.457,0,0,1,.056-4.75Zm-53.976-6.5,34.062-.024v3.548l-34.062-.073Zm0-3.053c0-1.9,0-2.59,2.015-2.59,1.516-.008,3.04,0,4.555.008h27.613l.024,2.655Zm34.2-5.513c-.363.235.4.089-.564.2l-1.709-.008c-3.386,0-15.463.195-16.947-.081-.177-1-.073-4.717-.081-6.195,0-1.153-.185-1.6.218-1.924h41.254v20.095c-3.2-.049-5.281.706-6.466,2.793-1.983,3.491.443,5.724.951,6.666-.282.593-.742.869-1.145,1.713-1.645,3.378.839,5.61,1.145,6.292-.508.926-2.757,2.98-1.137,6.268l.911,1.388c.218.3.04-.032.226.341-.677,1.072-1.161,1.177-1.556,2.89l-.056,1.843-34.28.057-.065-6.122a4.071,4.071,0,0,1,.185-1.949h19.123c0,1.916-.363,2.752.709,4.019,2.846.471,2.233-1.77,2.233-4.165l-.008-32.4c0-1.543.443-5.074-.79-5.61a1.452,1.452,0,0,0-2.088.9,21.263,21.263,0,0,0-.064,2.98Zm-19.067-14.615a5.3,5.3,0,0,1,2.427-4.035c1.87-1.242,2.967-1.023,5.474-1.039h25.734c2.338.008,3.628.041,5.216,1.291a5.38,5.38,0,0,1,2.136,4.108,7.126,7.126,0,0,1,.1,3.142c-.814.219-39.795.317-41.254.032C1344.83,725.416,1344.58,723.054,1345.112,722.648Zm49.542,36.358c.322-.82,3.1-3.223,1.153-6.893-1.2-2.257-2.991-2.907-6.426-2.907-.484-2.371.121-21.435-.1-26.192a8.845,8.845,0,0,0-5.385-7.689c-2.717-1.161-9.021-.7-12.335-.714-4.354-.016-8.707-.008-13.061,0-3.692.016-9.078-.577-11.94,1.112-6.813,4.035-3.822,11.756-4.571,21.5-11.674.252-14.794-1.827-14.794,6.341,0,2.29.008,4.571.008,6.861q-.012,7.052,0,14.1c0,6.317,1,6.877,7.167,6.853-.718,3.881-1.379,6.341-.726,10.563.693,4.5,2.024,5.578,3.45,8.306l-3.281,3.337c-1.733,1.7.556,2.712,1.653,3.475,4.136,2.89,11.287,8,15.487,10.709,2.161,1.388,2.338,1.323,4.079-.438,2.628-2.647,1.79-2.444,3.661-2.038,6.707,1.478,14.979-4.9,17.777-7.811.645-.674,2.773-2.939,3.6-3.037,2.451-.308,3.039-.146,5.023-1.421a8.7,8.7,0,0,0,3.072-3.386c1.234-2.346.589-3.118,1.072-5.4,3.217.016,5.232-.714,6.426-2.866,1.935-3.491-.734-5.9-1.032-6.78a4.857,4.857,0,0,0,1.693-3.962c-.048-2.143-.967-2.631-1.661-3.816.379-.779,1.661-1.632,1.669-4A4.924,4.924,0,0,0,1394.654,759.005Z" transform="translate(-1327.19 -714.212)" fill="#478e1f" fill-rule="evenodd"/>
      <path id="Path_127" data-name="Path 127" d="M1420.349,714.343c-3.563,1.908,4.458,3.654,3.733,13.526-.46,6.211-3.975,8.72-4.426,9.678a1.46,1.46,0,0,0,2.072,1.892c1.088-.633,3.168-3.97,3.838-5.489a18.157,18.157,0,0,0,1.467-7.989,17.384,17.384,0,0,0-3.9-10.117c-.589-.706-1.37-2.257-2.781-1.5Z" transform="translate(-1345.065 -714.141)" fill="#478e1f" fill-rule="evenodd"/>
      <path id="Path_128" data-name="Path 128" d="M1415.165,719.484c-2.822,1.7,2.653,2.923,2.169,9.134a8.514,8.514,0,0,1-1.822,4.6c-.4.487-1.225,1.088-1.072,2.03a1.421,1.421,0,0,0,2.056,1.08c1.943-.974,4.015-5.765,3.789-9.223C1420.083,724.129,1417.43,718.129,1415.165,719.484Z" transform="translate(-1344.081 -715.109)" fill="#478e1f" fill-rule="evenodd"/>
      <path id="Path_129" data-name="Path 129" d="M1333.642,772.686a1.5,1.5,0,0,0-.185,2.566c.758.447,2.628.227,3.612.227,1.322,0,6.555.187,7.425-.2a1.483,1.483,0,0,0,.169-2.541C1343.832,772.248,1334,772.508,1333.642,772.686Z" transform="translate(-1328.281 -725.109)" fill="#478e1f" fill-rule="evenodd"/>
      <path id="Path_130" data-name="Path 130" d="M1333.669,766.134a1.451,1.451,0,0,0-.185,2.525c.863.528,10.569.3,11.029.065a1.6,1.6,0,0,0,.1-2.5c-.839-.568-10.577-.276-10.94-.089Z" transform="translate(-1328.283 -723.874)" fill="#478e1f" fill-rule="evenodd"/>
      <path id="Path_131" data-name="Path 131" d="M1410.4,724.394c-2.531.861.363,2.955.04,5-.218,1.413-1.121,1.332-1.088,2.476.089,2.858,4.66,1.258,4.071-3.808-.177-1.494-1.443-4.214-3.023-3.67Z" transform="translate(-1343.111 -716.056)" fill="#478e1f" fill-rule="evenodd"/>
      <path id="Path_132" data-name="Path 132" d="M1370.1,721.841c-1.6.6-1.7,2.858,1.217,2.85,2.846-.016,8.046.812,6.861-2.1-.347-.869-1.113-.877-2.112-.869C1374.891,721.727,1370.884,721.549,1370.1,721.841Z" transform="translate(-1335.29 -715.557)" fill="#478e1f" fill-rule="evenodd"/>
      <path id="Path_133" data-name="Path 133" d="M1390.329,724.855l-.065,3.069-40.964.008.04-3.4c-.532.406-.282,2.769-.161,3.5,1.459.284,40.439.187,41.254-.032a7.128,7.128,0,0,0-.1-3.142Z" transform="translate(-1331.419 -716.095)" fill="#478e1f" fill-rule="evenodd"/>
      <path id="Path_134" data-name="Path 134" d="M1383.526,790.911a1,1,0,0,0-.258.528,1.975,1.975,0,0,0,.024,1.185l-33.966.008-.016-7.892a4.07,4.07,0,0,0-.185,1.949l.064,6.122,34.28-.057Z" transform="translate(-1331.437 -727.419)" fill="#478e1f" fill-rule="evenodd"/>
      <path id="Path_135" data-name="Path 135" d="M1368.42,740.676h-19.1l.016-8.006c-.4.325-.218.771-.218,1.924.008,1.478-.1,5.2.08,6.195,1.484.276,13.56.081,16.947.081l1.709.008C1368.823,740.765,1368.058,740.911,1368.42,740.676Z" transform="translate(-1331.432 -717.626)" fill="#478e1f" fill-rule="evenodd"/>
      <path id="Path_136" data-name="Path 136" d="M1399.934,800.942l.2-.812-2.806-.171c.307.544,2.016.284,2.661.284l-.056.7Z" transform="translate(-1340.782 -730.282)" fill="#478e1f" fill-rule="evenodd"/>
    </g>
  </g>
</svg>
