<svg id="Camada_x0020_1" xmlns="http://www.w3.org/2000/svg" width="57.674" height="506.47" viewBox="0 0 57.674 506.47">
  <g id="_2303291309008" transform="translate(0)">
    <rect id="Rectangle_39" data-name="Rectangle 39" width="5.335" height="499.482" rx="0.71" transform="translate(26.188 3.269)" fill="#e8eaf0"/>
    <ellipse id="Ellipse_23" data-name="Ellipse 23" cx="24.435" cy="24.608" rx="24.435" ry="24.608" transform="translate(4.402 4.433)" fill="#478e1f"/>
    <path id="Path_173" data-name="Path 173" d="M28.837,0A28.778,28.778,0,0,1,49.243,8.491a29.261,29.261,0,0,1,0,41.1,28.767,28.767,0,0,1-40.812,0,29.261,29.261,0,0,1,0-41.1A28.843,28.843,0,0,1,28.837,0ZM43.013,14.765a19.984,19.984,0,0,0-28.352,0,20.328,20.328,0,0,0,0,28.553,19.984,19.984,0,0,0,28.352,0,20.328,20.328,0,0,0,0-28.553Z" transform="translate(0 0)" fill="#e8eaf0"/>
    <ellipse id="Ellipse_24" data-name="Ellipse 24" cx="24.435" cy="24.608" rx="24.435" ry="24.608" transform="translate(4.402 82.464)" fill="#478e1f"/>
    <path id="Path_174" data-name="Path 174" d="M28.837,20.77A28.952,28.952,0,0,1,57.674,49.811a29.03,29.03,0,0,1-8.431,20.55,28.767,28.767,0,0,1-40.812,0,29.215,29.215,0,0,1,0-41.063A28.72,28.72,0,0,1,28.837,20.77Zm14.176,14.8a19.9,19.9,0,0,0-28.352,0A20.106,20.106,0,1,0,43.013,64.087a20.282,20.282,0,0,0,0-28.515Z" transform="translate(0 57.261)" fill="#e8eaf0"/>
    <ellipse id="Ellipse_25" data-name="Ellipse 25" cx="24.435" cy="24.608" rx="24.435" ry="24.608" transform="translate(4.402 156.25)" fill="#478e1f"/>
    <path id="Path_175" data-name="Path 175" d="M28.837,40.41a28.655,28.655,0,0,1,20.406,8.528,29.215,29.215,0,0,1,0,41.063A28.677,28.677,0,0,1,8.431,90a29.215,29.215,0,0,1,0-41.063A28.72,28.72,0,0,1,28.837,40.41Zm14.176,14.8A20.033,20.033,0,0,0,8.8,69.451,20.068,20.068,0,0,0,28.837,89.626a19.95,19.95,0,0,0,14.176-5.9,20.282,20.282,0,0,0,0-28.515Z" transform="translate(0 111.407)" fill="#e8eaf0"/>
    <path id="Path_176" data-name="Path 176" d="M25.615,283.988A24.608,24.608,0,1,1,1.18,308.6a24.51,24.51,0,0,1,24.435-24.608Zm0-222.748A24.608,24.608,0,1,1,1.18,85.848,24.51,24.51,0,0,1,25.615,61.24Zm0,73.786A24.608,24.608,0,1,1,1.18,159.634a24.51,24.51,0,0,1,24.435-24.608Zm0,72.433A24.608,24.608,0,1,1,1.18,232.067a24.51,24.51,0,0,1,24.435-24.608Z" transform="translate(3.222 168.834)" fill="#478e1f" fill-rule="evenodd"/>
    <path id="Path_177" data-name="Path 177" d="M28.837,282.77A28.655,28.655,0,0,1,49.243,291.3a29.215,29.215,0,0,1,0,41.063,28.677,28.677,0,0,1-40.812,0,29.215,29.215,0,0,1,0-41.063A28.72,28.72,0,0,1,28.837,282.77Zm14.176,14.8a19.984,19.984,0,0,0-28.352,0,20.156,20.156,0,0,0,14.176,34.413A20.068,20.068,0,0,0,48.87,311.849,20.168,20.168,0,0,0,43.013,297.572ZM28.837,60.06a28.622,28.622,0,0,1,20.406,8.491,29.215,29.215,0,0,1,0,41.063,28.677,28.677,0,0,1-40.812,0,29.215,29.215,0,0,1,0-41.063A28.687,28.687,0,0,1,28.837,60.06ZM43.013,74.825a19.984,19.984,0,0,0-28.352,0,20.033,20.033,0,1,0,28.352,0ZM28.837,133.846a28.622,28.622,0,0,1,20.406,8.491,29.261,29.261,0,0,1,0,41.1,28.767,28.767,0,0,1-40.812,0,29.261,29.261,0,0,1,0-41.1A28.687,28.687,0,0,1,28.837,133.846Zm14.176,14.765a19.984,19.984,0,0,0-28.352,0,20.328,20.328,0,0,0,0,28.553,19.984,19.984,0,0,0,28.352,0,20.328,20.328,0,0,0,0-28.553ZM28.837,206.279a28.622,28.622,0,0,1,20.406,8.491,29.215,29.215,0,0,1,0,41.063,28.677,28.677,0,0,1-40.812,0,29.215,29.215,0,0,1,0-41.063A28.687,28.687,0,0,1,28.837,206.279Zm14.176,14.765a19.984,19.984,0,0,0-28.352,0,20.033,20.033,0,1,0,28.352,0Z" transform="translate(0 165.58)" fill="#e8eaf0"/>
    <path id="Path_178" data-name="Path 178" d="M6.751,14.847h8.021V6.77a2.628,2.628,0,0,1,2.611-2.63h.3a2.628,2.628,0,0,1,2.611,2.63v8.077h8.058a2.621,2.621,0,0,1,2.574,2.63v.3a2.621,2.621,0,0,1-2.574,2.63H20.293v8.115a2.62,2.62,0,0,1-2.611,2.592h-.3a2.62,2.62,0,0,1-2.611-2.592V20.407H6.751a2.628,2.628,0,0,1-2.611-2.63v-.3a2.628,2.628,0,0,1,2.611-2.63Z" transform="translate(11.304 12.414)" fill="#fff" fill-rule="evenodd"/>
    <path id="Path_179" data-name="Path 179" d="M6.751,35.617h8.021V27.54a2.628,2.628,0,0,1,2.611-2.63h.3a2.628,2.628,0,0,1,2.611,2.63v8.077h8.058a2.621,2.621,0,0,1,2.574,2.63v.3a2.6,2.6,0,0,1-2.574,2.63H20.293v8.115a2.62,2.62,0,0,1-2.611,2.592h-.3a2.62,2.62,0,0,1-2.611-2.592V41.177H6.751a2.6,2.6,0,0,1-2.611-2.63v-.3a2.628,2.628,0,0,1,2.611-2.63Z" transform="translate(11.304 69.675)" fill="#fff" fill-rule="evenodd"/>
    <path id="Path_180" data-name="Path 180" d="M6.751,55.295h8.021V47.18a2.653,2.653,0,0,1,2.611-2.63h.3a2.653,2.653,0,0,1,2.611,2.63v8.115h8.058a2.588,2.588,0,0,1,2.574,2.592v.3a2.6,2.6,0,0,1-2.574,2.63H20.293v8.115a2.653,2.653,0,0,1-2.611,2.63h-.3a2.653,2.653,0,0,1-2.611-2.63V60.817H6.751a2.6,2.6,0,0,1-2.611-2.63v-.3a2.6,2.6,0,0,1,2.611-2.592Z" transform="translate(11.304 122.821)" fill="#fff" fill-rule="evenodd"/>
    <path id="Path_181" data-name="Path 181" d="M6.751,74.215h8.021V66.1a2.628,2.628,0,0,1,2.611-2.63h.3a2.628,2.628,0,0,1,2.611,2.63v8.115h8.058a2.588,2.588,0,0,1,2.574,2.592v.3a2.6,2.6,0,0,1-2.574,2.63H20.293v8.115a2.62,2.62,0,0,1-2.611,2.592h-.3a2.62,2.62,0,0,1-2.611-2.592V79.737H6.751a2.6,2.6,0,0,1-2.611-2.63v-.3a2.6,2.6,0,0,1,2.611-2.592Z" transform="translate(11.304 177.982)" fill="#fff" fill-rule="evenodd"/>
    <path id="Path_182" data-name="Path 182" d="M6.751,94.215h8.021V86.1a2.628,2.628,0,0,1,2.611-2.63h.3a2.628,2.628,0,0,1,2.611,2.63v8.115h8.058a2.588,2.588,0,0,1,2.574,2.592v.3a2.6,2.6,0,0,1-2.574,2.63H20.293v8.115a2.62,2.62,0,0,1-2.611,2.592h-.3a2.62,2.62,0,0,1-2.611-2.592V99.737H6.751a2.6,2.6,0,0,1-2.611-2.63v-.3a2.6,2.6,0,0,1,2.611-2.592Z" transform="translate(11.304 231.12)" fill="#fff" fill-rule="evenodd"/>
    <path id="Path_183" data-name="Path 183" d="M6.751,113.215h8.021V105.1a2.628,2.628,0,0,1,2.611-2.63h.3a2.628,2.628,0,0,1,2.611,2.63v8.115h8.058a2.588,2.588,0,0,1,2.574,2.592v.3a2.6,2.6,0,0,1-2.574,2.63H20.293v8.115a2.62,2.62,0,0,1-2.611,2.592h-.3a2.62,2.62,0,0,1-2.611-2.592v-8.115H6.751a2.6,2.6,0,0,1-2.611-2.63v-.3a2.6,2.6,0,0,1,2.611-2.592Z" transform="translate(11.304 284.501)" fill="#fff" fill-rule="evenodd"/>
    <path id="Path_184" data-name="Path 184" d="M6.751,133.847h8.021v-8.115a2.62,2.62,0,0,1,2.611-2.592h.3a2.62,2.62,0,0,1,2.611,2.592v8.115h8.058a2.6,2.6,0,0,1,2.574,2.63v.3a2.621,2.621,0,0,1-2.574,2.63H20.293v8.077a2.628,2.628,0,0,1-2.611,2.63h-.3a2.628,2.628,0,0,1-2.611-2.63v-8.077H6.751a2.628,2.628,0,0,1-2.611-2.63v-.3a2.6,2.6,0,0,1,2.611-2.63Z" transform="translate(11.304 340.487)" fill="#fff" fill-rule="evenodd"/>
  </g>
</svg>
