<svg xmlns="http://www.w3.org/2000/svg" viewBox="0 0 32 32"><title>reading 4</title><g class="nc-icon-wrapper" stroke-linecap="square" stroke-linejoin="miter" stroke-width="2" fill="#3c54a5" stroke="#3c54a5"><polygon points="23 30 15.944 31 9 30 9 19 15.944 20 23 19 23 30" fill="none" stroke-miterlimit="10" data-color="color-2"/><path d="M15.944,11h0a5,5,0,0,1-5-5h0a5,5,0,0,1,5-5h0a5,5,0,0,1,5,5h0A5,5,0,0,1,15.944,11Z" fill="none" stroke="#3c54a5" stroke-miterlimit="10"/><path d="M13,25,3.025,27.494a1,1,0,0,1-1.15-1.39l4.589-9.942A2,2,0,0,1,8.28,15H23.715a2,2,0,0,1,1.819,1.168l4.545,9.939a1,1,0,0,1-1.153,1.386L19,25" fill="none" stroke="#3c54a5" stroke-miterlimit="10"/></g></svg>