<svg xmlns="http://www.w3.org/2000/svg" width="252.3" height="287.52" viewBox="0 0 252.3 287.52">
  <g id="Camada_x0020_1" transform="translate(0)">
    <g id="_1746871736032" transform="translate(0 0)">
      <path id="Path_974" data-name="Path 974" d="M144.812,181.715c-.006-7.124-.439-14.541,1.249-20.925,4.228-15.985,19.076-29.217,37.722-28.7,12.07.33,23.152,5.063,30.139,14.047,8.9,11.444,8.8,18.43,8.783,35.561,6.435.1,11.074-.106,11.14,7.007l-.009,54.571c0,22.363,2.661,23.092-13.3,23.092l-72.947,0c-5.95,0-12.388,1.036-13.669-4.75-.571-2.58-.189-49.531-.189-54.493,0-22.268-2.606-25.552,11.077-25.408Zm141.534-33.836c.235-4.478.253-9.159.261-13.723.011-7.334-.534-5.97-7.377-6.444a182.97,182.97,0,0,1-24.257-3.206,193.118,193.118,0,0,1-41.746-13.488A191.264,191.264,0,0,1,186.444,96.3c-1.653-1.105-3.117-1.576-4.816-.422-12.919,8.766-26.459,15.1-41.158,20.732a183.245,183.245,0,0,1-44.777,10.414c-16.843,1.708-14.914-2.351-14.811,13.155.146,22.1,3.284,53.383,8.815,73.931,3.818,14.18,7.853,29.1,13.938,41.3,4.561,9.142,9.076,18.43,14.946,26.571,2.354,3.261,5,7.078,7.52,9.883l4.868,5.505c1.272,1.1,2.179,2.38,3.421,3.622,1.168,1.168,2.4,2.064,3.456,3.252,2.164,2.434,1.86,1.553,3.674,3.347,8.513,8.407,27.288,18.663,39.137,22.793,2.885,1,2.526,1.283,5.4.233,41.336-15.147,66.713-45.346,83.306-89.055,10.968-28.9,15.25-60.455,16.984-93.688Z" transform="translate(-57.582 -67.883)" fill="#60abd2" fill-rule="evenodd"/>
      <path id="Path_975" data-name="Path 975" d="M228.764,80c-1.734,33.233-6.016,64.792-16.984,93.688-16.593,43.71-41.97,73.908-83.306,89.055-2.873,1.051-2.514.772-5.4-.232-11.849-4.13-30.624-14.386-39.137-22.793-1.814-1.794-1.51-.913-3.674-3.347-1.056-1.188-2.288-2.084-3.456-3.252-1.243-1.243-2.15-2.523-3.421-3.622l-4.868-5.505c-2.517-2.8-5.167-6.622-7.52-9.883-5.87-8.14-10.385-17.429-14.946-26.571-6.085-12.2-10.121-27.125-13.938-41.3C26.582,125.681,23.445,94.4,23.3,72.3c-.1-15.506-2.032-11.447,14.811-13.155A183.245,183.245,0,0,0,82.887,48.73C97.586,43.1,111.125,36.763,124.045,28c1.7-1.154,3.163-.683,4.816.422a191.265,191.265,0,0,0,26.783,14.716,193.119,193.119,0,0,0,41.746,13.488,182.97,182.97,0,0,0,24.257,3.206c6.843.474,7.388-.89,7.377,6.444-.009,4.564-.026,9.245-.261,13.723ZM125.219,0h1.576c2.026.247,4.308,1.452,7.529,3.872,2.342,1.762,4.518,3.249,6.883,4.831l10.818,6.585c1.4.749,2.342,1.286,3.68,2.006a171.636,171.636,0,0,0,42.579,15.652c17.36,3.82,24.877,3.915,42.639,3.872,4.748-.011,6.036.4,8.459,2.919,2.187,2.273,2.623,4.814,2.586,9.131-.02,2.213.255,3.341.333,5.055V75.168c-.342,13.5-1.254,27.63-2.58,38.064-3.444,27.159-6.837,42.762-15.953,69.058-.993,2.865-1.894,5.006-2.977,7.733-1.01,2.54-2.11,5.147-3.255,7.454-10.675,21.47-11.53,23.56-26.574,42.7L187.8,253.79a134.07,134.07,0,0,1-17.67,14.122c-1.174.8-2.087,1.266-3.284,2.07l-6.671,4.039c-1.231.66-2.153,1.019-3.3,1.719-4.139,2.52-25.19,11.78-30.721,11.78a13.257,13.257,0,0,1-4.638-1.048l-11.852-4.211A150.291,150.291,0,0,1,81.443,267.3l-9.245-6.82L55.461,244.76C49.763,239.125,38.9,224,34.9,216.791c-1.3-2.342-2.669-4.38-3.9-6.808-4.257-8.393-6.88-13.781-10.256-22.208C5.342,149.312,0,106.978,0,63.931V57.24c.052-1.874.353-2.836.339-5.02-.023-3.927.02-8.143,1.343-10.706,3.287-6.361,11.14-4.7,19.065-4.7,31.706,0,64.655-10.985,90.545-28.25,7.127-4.75,10.4-8.129,13.927-8.568Z" transform="translate(0 0)" fill="#16273f" fill-rule="evenodd"/>
      <path id="Path_976" data-name="Path 976" d="M348.726,455.745c0-6.542,7.8-6.513,7.8,0V466.79c0,6.513-7.8,6.573-7.8,0Zm2.661-49.258c3.909-1.53,5.164,2.018,5.152,5.4l-.009,22.77c0,3.591.623,7.348-2.532,8.41-3.935,1.32-5.287-1.9-5.281-5.385l.009-22.773C348.723,410.658,347.928,407.845,351.387,406.487Zm-41.3,37.791c-5.224-2.3-10.336-7.319-8.835-15.486,2.73-14.868,24.355-15.066,27.2-.1a14.349,14.349,0,0,1-2.035,10.21,12.316,12.316,0,0,1-3.074,3.289,39.769,39.769,0,0,1-3.708,2.236l-.063,18.3-9.469-.006-.014-18.442Zm43.7-47.768-12.42,0-52.915.026-12.558-.009c-13.683-.144-11.077,3.14-11.077,25.408,0,4.963-.382,51.913.189,54.493,1.28,5.787,7.718,4.75,13.669,4.75l72.947,0c15.956,0,13.3-.729,13.3-23.092l.009-54.571C364.86,396.4,360.222,396.611,353.787,396.51Z" transform="translate(-188.664 -282.698)" fill="#f1d53c" fill-rule="evenodd"/>
      <path id="Path_977" data-name="Path 977" d="M347.573,304.222l52.915-.026c.014-11.177.729-18.953-5.187-26.746-10.841-14.291-32.243-13.545-42.579.146-5.878,7.784-5.155,15.141-5.149,26.625Z" transform="translate(-247.785 -190.381)" fill="#60abd2" fill-rule="evenodd"/>
      <path id="Path_978" data-name="Path 978" d="M303.766,273.272l12.558.009c-.006-11.484-.729-18.841,5.149-26.625,10.336-13.692,31.737-14.438,42.579-.146,5.916,7.793,5.2,15.569,5.187,26.746l12.42,0c.014-17.13.121-24.117-8.783-35.561-6.986-8.984-18.069-13.717-30.139-14.047-18.646-.514-33.494,12.719-37.722,28.7-1.688,6.384-1.254,13.8-1.249,20.925Z" transform="translate(-216.536 -159.44)" fill="#fefefe" fill-rule="evenodd"/>
      <path id="Path_979" data-name="Path 979" d="M400.434,496.551l.014,18.442,9.469.006.063-18.3a39.779,39.779,0,0,0,3.708-2.236,12.315,12.315,0,0,0,3.074-3.289,14.349,14.349,0,0,0,2.035-10.21c-2.845-14.969-24.47-14.771-27.2.1-1.5,8.166,3.611,13.181,8.835,15.485Z" transform="translate(-279.007 -334.971)" fill="#ce9234" fill-rule="evenodd"/>
      <path id="Path_980" data-name="Path 980" d="M560.1,430.361c-3.459,1.358-2.664,4.171-2.661,8.422l-.009,22.773c-.006,3.482,1.346,6.705,5.281,5.385,3.154-1.062,2.532-4.819,2.532-8.41l.009-22.77C565.264,432.378,564.01,428.831,560.1,430.361Z" transform="translate(-397.377 -306.571)" fill="#fefefe" fill-rule="evenodd"/>
      <path id="Path_981" data-name="Path 981" d="M557.64,590.72v11.045c0,6.573,7.8,6.513,7.8,0V590.72C565.445,584.208,557.64,584.179,557.64,590.72Z" transform="translate(-397.578 -417.673)" fill="#fefefe" fill-rule="evenodd"/>
    </g>
  </g>
</svg>
