<svg id="logo-ico" xmlns="http://www.w3.org/2000/svg" width="91.228" height="53.863" viewBox="0 0 91.228 53.863">
  <path id="Path_220" data-name="Path 220" d="M3.458,4.624A4.674,4.674,0,0,1,8.169,0,4.622,4.622,0,0,1,12.82,4.624,4.572,4.572,0,0,1,8.169,9.187a4.586,4.586,0,0,1-4.71-4.564M.239,37.95H2.5a1.655,1.655,0,0,0,1.431-1.5V18.495c0-.661-.716-1.621-1.431-1.621H0V11.649H11.15c.954,0,1.431.961,1.431,3.3V36.389a1.66,1.66,0,0,0,1.491,1.5h2.266v4.924H.239Z" fill="#fff"/>
  <path id="Path_221" data-name="Path 221" d="M30.7,34.853C30.7,24.825,37.8,18.7,47.157,18.7a18.535,18.535,0,0,1,9.481,2.162v6.425H53.358a8.952,8.952,0,0,0-6.2-2.282c-4.472,0-7.751,3.3-7.751,9.848,0,6.725,3.1,9.548,7.513,9.548a9.223,9.223,0,0,0,6.917-2.522h2.981v5.945A17.938,17.938,0,0,1,46.8,50.706c-10.136.06-16.1-5.885-16.1-15.853" transform="translate(-12.395 -7.471)" fill="#fff"/>
  <path id="Path_222" data-name="Path 222" d="M102.5,34.913c0-6.785-2.922-10.088-7.1-10.088s-7.1,3.3-7.1,10.088c0,6.725,2.922,9.608,7.1,9.608,4.233.06,7.1-2.882,7.1-9.608m-22.9,0C79.6,24.885,86.7,18.7,95.4,18.7c8.765,0,15.8,6.185,15.8,16.213,0,9.968-7.1,15.853-15.8,15.853S79.6,44.881,79.6,34.913" transform="translate(-32.138 -7.471)" fill="#fff"/>
  <path id="Path_223" data-name="Path 223" d="M136.8,60.9a4.83,4.83,0,1,1,4.83,4.744A4.726,4.726,0,0,1,136.8,60.9" transform="translate(-55.232 -22.413)" fill="#fff"/>
  <path id="Path_224" data-name="Path 224" d="M89.164,84.7c.06-.6.358-.841.716-.841.417,0,.656.18.656.841Zm.716-1.381A1.533,1.533,0,0,0,88.389,85a1.482,1.482,0,0,0,1.55,1.681h0a1.873,1.873,0,0,0,1.193-.36h0v-.48h-.238a1.175,1.175,0,0,1-.835.3c-.537,0-.835-.24-.894-.961H91.31v-.3c-.06-1.021-.537-1.561-1.431-1.561m-2.087,2.522a1,1,0,0,1-.716.3c-.537,0-.835-.36-.835-1.081s.358-1.081.894-1.141a.842.842,0,0,1,.656.24h.3v-.54h0a1.676,1.676,0,0,0-.954-.24,1.588,1.588,0,0,0-1.61,1.681,1.512,1.512,0,0,0,1.55,1.681,1.45,1.45,0,0,0,1.014-.36h0v-.54ZM84.573,82.3a.42.42,0,1,0,.417.42.45.45,0,0,0-.417-.42m.06,1.081h-.417v3.243h.716v-2.7a.9.9,0,0,0-.06-.42c0-.06-.119-.12-.239-.12M83.38,82.3a.818.818,0,0,0-.894.9v.24h-.358v.48h.358v2.762H83.2V83.921h.656v-.54H83.2V83.2c0-.3.119-.36.358-.36H83.8v-.48h-.06c0-.06-.119-.06-.358-.06m-1.908,0a.818.818,0,0,0-.894.9v.24H80.22v.48h.358v2.762h.716V83.921h.656v-.54h-.656V83.2c0-.3.119-.36.358-.36h.3v-.48h-.06c-.06-.06-.179-.06-.417-.06m-3.518,3.843c-.656,0-1.193-.48-1.193-1.621S77.3,82.9,77.954,82.9s1.193.54,1.193,1.621c-.06,1.081-.537,1.561-1.193,1.621m0-3.843a2.238,2.238,0,1,0,1.968,2.222A2.056,2.056,0,0,0,77.954,82.3m-4.71,2.342c-.477-.06-.656-.18-.656-.36,0-.24.119-.36.537-.36a1.126,1.126,0,0,1,.715.24h.239v-.54h0a1.837,1.837,0,0,0-.954-.24c-.716,0-1.193.36-1.193.961s.417.9,1.014.961c.537.06.6.18.6.42,0,.3-.179.42-.6.42a.937.937,0,0,1-.775-.3h-.239v.54h0a2.09,2.09,0,0,0,1.073.3h0c.835,0,1.252-.42,1.252-1.021.06-.661-.3-.9-1.014-1.021M71.455,82.3a.4.4,0,0,0-.417.36.278.278,0,0,0,.179.3c.119.06.119.06.119.12s-.06.12-.239.18h-.06v.42h.06a.789.789,0,0,0,.775-.9.427.427,0,0,0-.417-.48m-1.073,1.081a1.041,1.041,0,0,0-.835.42c0-.3-.119-.36-.3-.36h-.417v3.243h.716V84.342a1.242,1.242,0,0,1,.894-.36h.179v-.6h-.238M66.208,84.7c.06-.6.358-.841.716-.841.417,0,.656.18.656.841Zm.716-1.381A1.533,1.533,0,0,0,65.433,85a1.482,1.482,0,0,0,1.55,1.681h0a1.872,1.872,0,0,0,1.193-.36h0v-.48h-.238a1.175,1.175,0,0,1-.835.3c-.537,0-.835-.24-.894-.961h2.147v-.3c-.06-1.021-.6-1.561-1.431-1.561m-2.862,0a1.875,1.875,0,0,0-1.133.42c0-.24-.119-.36-.3-.36h-.417v3.243h.716v-2.4a1.976,1.976,0,0,1,.894-.3c.3,0,.417.06.417.48v2.222h.716v-2.4a.816.816,0,0,0-.894-.9m-3.1,1.741c0,.781-.3,1.081-.835,1.081-.477,0-.835-.36-.835-1.081,0-.781.358-1.141.835-1.141.537,0,.835.36.835,1.141Zm-.835-1.741A1.687,1.687,0,1,0,61.676,85a1.543,1.543,0,0,0-1.55-1.681m-2.385.06h-.417v3.243h.716v-2.7a.9.9,0,0,0-.06-.42.309.309,0,0,0-.239-.12m-.06-1.081a.42.42,0,1,0,.417.42.45.45,0,0,0-.417-.42m-1.968,2.342c-.477-.06-.656-.18-.656-.36,0-.24.119-.36.537-.36a1.126,1.126,0,0,1,.716.24h.239v-.54h0a1.837,1.837,0,0,0-.954-.24c-.716,0-1.193.36-1.193.961s.417.9,1.014.961c.537.06.6.18.6.42,0,.3-.179.42-.6.42a.938.938,0,0,1-.775-.3h-.179v.54h0a2.089,2.089,0,0,0,1.073.3h0c.835,0,1.252-.42,1.252-1.021,0-.661-.358-.9-1.073-1.021m-2.683,0c-.477-.06-.656-.18-.656-.36,0-.24.119-.36.537-.36a1.126,1.126,0,0,1,.716.24h.239v-.54h0a1.837,1.837,0,0,0-.954-.24c-.716,0-1.193.36-1.193.961s.417.9,1.014.961c.537.06.6.18.6.42,0,.3-.179.42-.6.42a.938.938,0,0,1-.775-.3h-.239v.54h0a2.089,2.089,0,0,0,1.073.3h0c.835,0,1.252-.42,1.252-1.021.06-.661-.3-.9-1.014-1.021M50.824,82.3a.42.42,0,1,0,.417.42.45.45,0,0,0-.417-.42m.06,1.081h-.417v3.243h.716v-2.7a.9.9,0,0,0-.06-.42.309.309,0,0,0-.239-.12m-1.968-.06a1.875,1.875,0,0,0-1.133.42.755.755,0,0,0-.775-.42,1.708,1.708,0,0,0-1.073.42c0-.24-.119-.36-.3-.36h-.417v3.243h.716v-2.4a1.251,1.251,0,0,1,.775-.3c.3,0,.358.06.417.42v2.282h.716v-2.4a1.75,1.75,0,0,1,.775-.3c.3,0,.417.06.417.42v2.282h.716v-2.4c0-.661-.358-.9-.835-.9m-5.187,0a1.875,1.875,0,0,0-1.133.42.722.722,0,0,0-.716-.42,1.708,1.708,0,0,0-1.073.42c0-.24-.119-.36-.3-.36h-.417v3.243h.656v-2.4a1.251,1.251,0,0,1,.775-.3c.3,0,.358.06.417.42v2.282h.716v-2.4a1.75,1.75,0,0,1,.775-.3c.3,0,.417.06.417.42v2.282h.716v-2.4a.8.8,0,0,0-.835-.9m-5.784,2.822c-.477,0-.835-.36-.835-1.081,0-.781.358-1.141.835-1.141s.835.36.835,1.141c0,.721-.3,1.081-.835,1.081m0-2.822A1.687,1.687,0,1,0,39.5,85a1.543,1.543,0,0,0-1.55-1.681m-2.206,2.342a1.376,1.376,0,0,1-1.073.42c-.775,0-1.193-.54-1.193-1.621S33.95,82.9,34.725,82.9a1.138,1.138,0,0,1,.894.36h.358v-.6h0a2.223,2.223,0,0,0-1.252-.36,1.99,1.99,0,0,0-1.968,2.222c0,1.381.775,2.222,1.908,2.222a1.9,1.9,0,0,0,1.371-.48h0v-.6Zm-5.724-2.342a1.875,1.875,0,0,0-1.133.42c0-.24-.119-.36-.3-.36h-.417v3.243h.716v-2.4a1.976,1.976,0,0,1,.894-.3c.3,0,.417.06.417.48v2.222h.716v-2.4a.816.816,0,0,0-.894-.9m-3.1,1.741c0,.781-.3,1.081-.835,1.081-.477,0-.835-.36-.835-1.081,0-.781.358-1.141.835-1.141.537,0,.835.36.835,1.141Zm-.835-1.741A1.687,1.687,0,1,0,27.63,85a1.543,1.543,0,0,0-1.55-1.681M23.635,82.3a.42.42,0,1,0,.417.42.45.45,0,0,0-.417-.42m.06,1.081h-.417v3.243h.716v-2.7a.9.9,0,0,0-.06-.42.309.309,0,0,0-.239-.12m-1.61,2.4V83.921H22.8v-.54h-.716V82.54h-.716v.841h-.358v.54h.358v1.922c0,.6.358.841.894.841.239,0,.417-.06.537-.06h.06v-.48h-.3c-.417,0-.477-.06-.477-.36m-2.266.06a.907.907,0,0,1-.656.36.474.474,0,0,1-.537-.54c0-.36.239-.48.656-.48a1.64,1.64,0,0,1,.537.06Zm-.477-2.522a1.833,1.833,0,0,0-1.133.3h0v.54h.239a1.535,1.535,0,0,1,.835-.24c.417,0,.6.12.6.48v.36a2.22,2.22,0,0,0-.656-.06c-.716,0-1.252.3-1.252,1.021a.943.943,0,0,0,1.014,1.021h0a1.121,1.121,0,0,0,.894-.36c.06.24.179.3.417.3h.3V84.4c-.06-.781-.477-1.081-1.252-1.081m-2.743,0a1.875,1.875,0,0,0-1.133.42.722.722,0,0,0-.716-.42,1.708,1.708,0,0,0-1.073.42c0-.24-.119-.36-.3-.36h-.417v3.243h.716v-2.4a1.251,1.251,0,0,1,.775-.3c.3,0,.358.06.417.42v2.282h.716v-2.4a1.75,1.75,0,0,1,.775-.3c.3,0,.417.06.417.42v2.282h.716v-2.4c-.06-.661-.417-.9-.894-.9m-4.353.06a1.041,1.041,0,0,0-.835.42c0-.3-.119-.36-.3-.36H10.7v3.243h.716V84.342a1.242,1.242,0,0,1,.894-.36h.179v-.6h-.239M8.609,86.143c-.477,0-.835-.36-.835-1.081,0-.781.358-1.141.835-1.141.537,0,.835.36.835,1.141,0,.721-.358,1.081-.835,1.081m0-2.822A1.687,1.687,0,1,0,10.159,85a1.543,1.543,0,0,0-1.55-1.681M6.463,82.3a.818.818,0,0,0-.894.9v.24H5.151v.48h.417v2.762h.716V83.921H6.94v-.54H6.284V83.2c0-.3.119-.36.358-.36h.3v-.48H6.88c-.06-.06-.239-.06-.417-.06M3.9,83.321a2.209,2.209,0,0,0-1.193.42c0-.24-.119-.36-.3-.36H2.05v3.243h.716v-2.4a1.976,1.976,0,0,1,.894-.3c.3,0,.417.06.417.48v2.222h.716v-2.4a.873.873,0,0,0-.894-.9M.5,86.684h.775V82.36H.5Z" transform="translate(-0.202 -32.881)" fill="#fff"/>
</svg>
