<svg id="logo" xmlns="http://www.w3.org/2000/svg" width="262.215" height="85.919" viewBox="0 0 262.215 85.919">
  <path id="Path_2" data-name="Path 2" d="M136.813,10.88l-15.173,8.9V37.422l15.173,8.9,15.155-8.9V19.779l-15.155-8.9Zm6.473,21.488-6.473,3.794-6.49-3.794V24.832l6.49-3.811,6.473,3.811Z" transform="translate(-100.011 -10.88)" fill="#fff" fill-rule="evenodd"/>
  <path id="Path_3" data-name="Path 3" d="M124.165,32.85l-15.155,8.9V59.392l15.155,8.9,15.155-8.9V41.749Zm6.473,21.488-6.473,3.811-6.49-3.811V46.8l6.49-3.811,6.473,3.811Z" transform="translate(-109.01 5.039)" fill="#fff" fill-rule="evenodd"/>
  <path id="Path_4" data-name="Path 4" d="M124.165,18.19,109.01,27.072v17.66l15.155,8.882,15.155-8.882V27.072L124.165,18.19Zm6.473,21.488-6.473,3.794-6.49-3.794V32.125l6.49-3.794,6.473,3.794Z" transform="translate(-109.01 -5.583)" fill="#fff" fill-rule="evenodd"/>
  <path id="Path_5" data-name="Path 5" d="M149.435,32.85l-15.155,8.9V59.392l15.155,8.9,15.155-8.9V41.749Zm6.49,21.488-6.49,3.811-6.473-3.811V46.8l6.473-3.811,6.49,3.811Z" transform="translate(-91.006 5.039)" fill="#fff" fill-rule="evenodd"/>
  <path id="Path_6" data-name="Path 6" d="M136.813,40.16,121.64,49.042V66.7l15.173,8.882L151.968,66.7V49.042L136.813,40.16Zm6.473,21.488-6.473,3.794-6.49-3.794V54.095l6.49-3.794,6.473,3.794Z" transform="translate(-100.011 10.336)" fill="#fff" fill-rule="evenodd"/>
  <path id="Path_7" data-name="Path 7" d="M149.435,18.19,134.28,27.072v17.66l15.155,8.882,15.155-8.882V27.072L149.435,18.19Zm6.49,21.488-6.49,3.794-6.473-3.794V32.125l6.473-3.794,6.49,3.794Z" transform="translate(-91.006 -5.583)" fill="#fff" fill-rule="evenodd"/>
  <path id="Path_8" data-name="Path 8" d="M172.089,57.76H166.01V34.891h6.079ZM165.65,28.976a3.039,3.039,0,0,1,.908-2.259,3.886,3.886,0,0,1,4.966,0,2.988,2.988,0,0,1,.925,2.259,2.953,2.953,0,0,1-.942,2.276,3.353,3.353,0,0,1-2.449.9,3.437,3.437,0,0,1-2.483-.9A3,3,0,0,1,165.65,28.976Zm17.142,5.915.188,2.552A7.969,7.969,0,0,1,189.5,34.46c2.928,0,4.932,1.173,6.028,3.5a7.781,7.781,0,0,1,6.816-3.5,6.733,6.733,0,0,1,5.5,2.19c1.2,1.431,1.8,3.6,1.8,6.5V57.76h-6.079V43.169a4.356,4.356,0,0,0-.753-2.828,3.333,3.333,0,0,0-2.671-.914,3.786,3.786,0,0,0-3.767,2.621l.017,15.711h-6.062V43.187a4.327,4.327,0,0,0-.771-2.863,3.424,3.424,0,0,0-2.654-.9,3.941,3.941,0,0,0-3.733,2.156V57.76h-6.062V34.891h5.685Zm37.229,0,.188,2.552a7.947,7.947,0,0,1,6.525-2.984c2.911,0,4.932,1.173,6.011,3.5a7.78,7.78,0,0,1,6.816-3.5,6.733,6.733,0,0,1,5.5,2.19c1.216,1.431,1.815,3.6,1.815,6.5V57.76h-6.1V43.169a4.258,4.258,0,0,0-.753-2.828,3.293,3.293,0,0,0-2.654-.914,3.807,3.807,0,0,0-3.785,2.621L233.6,57.76h-6.062V43.187a4.327,4.327,0,0,0-.771-2.863,3.382,3.382,0,0,0-2.637-.9,3.908,3.908,0,0,0-3.733,2.156V57.76h-6.062V34.891h5.685Zm45.124,20.54a7.6,7.6,0,0,1-6.216,2.742,7.218,7.218,0,0,1-5.583-2.1,9.187,9.187,0,0,1-1.952-6.191V34.891h6.062V49.654q0,3.57,3.237,3.57c2.055,0,3.476-.707,4.247-2.156V34.891h6.079V57.76h-5.7Zm16.029-20.54.188,2.639a7.941,7.941,0,0,1,6.525-3.07,6.625,6.625,0,0,1,5.377,2.138c1.165,1.431,1.764,3.553,1.8,6.381V57.76H289V43.135a3.906,3.906,0,0,0-.839-2.811,3.744,3.744,0,0,0-2.791-.9,4.164,4.164,0,0,0-3.836,2.207V57.76h-6.062V34.891Zm24.9,22.868h-6.079V34.891h6.079Zm-6.439-28.784a3.038,3.038,0,0,1,.908-2.259,3.886,3.886,0,0,1,4.966,0,2.988,2.988,0,0,1,.925,2.259,2.953,2.953,0,0,1-.942,2.276,3.354,3.354,0,0,1-2.449.9,3.437,3.437,0,0,1-2.483-.9A3,3,0,0,1,299.634,28.976Zm21.9,29.2a11.138,11.138,0,0,1-8.134-3.087,11,11,0,0,1-3.134-8.209v-.6a13.869,13.869,0,0,1,1.319-6.14,9.864,9.864,0,0,1,3.733-4.191,10.521,10.521,0,0,1,5.548-1.483,9.411,9.411,0,0,1,7.329,2.966q2.671,2.949,2.671,8.382v2.5H316.417A5.777,5.777,0,0,0,318.18,51.9a5.319,5.319,0,0,0,3.75,1.362,6.529,6.529,0,0,0,5.48-2.57l2.98,3.363a9.346,9.346,0,0,1-3.682,3.053A12.394,12.394,0,0,1,321.537,58.173Zm-.685-18.764a3.834,3.834,0,0,0-2.945,1.224,6.432,6.432,0,0,0-1.421,3.518h8.425v-.5a4.438,4.438,0,0,0-1.079-3.122,3.911,3.911,0,0,0-2.98-1.121Z" transform="translate(-68.655 -0.055)" fill="#fff" fill-rule="evenodd"/>
</svg>
