<svg xmlns="http://www.w3.org/2000/svg" width="1345.044" height="492.187" viewBox="0 0 1345.044 492.187">
  <g id="Group_342" data-name="Group 342" transform="translate(-291.505 -2448.92)">
    <g id="Group_338" data-name="Group 338" transform="translate(0.564 2449.703)">
      <g id="_2591192161248" transform="translate(1430.28 206.667)">
        <path id="Path_142" data-name="Path 142" d="M1746.611,2520.137v36.092c0,4.282-.74,7.043-3.892,8.659l-33.742,19.718c-2.954,1.713-5.344,1.964-8.936-.133l-32.092-18.721c-3.5-1.742-5.263-3.6-5.219-8.32l.073-38.535c0-3.78,1.253-5.8,4.757-7.833l32.759-19.1c3-1.742,5.424-1.89,9.068.229l31.733,18.633C1745.357,2513.264,1746.552,2514.962,1746.611,2520.137Z" transform="translate(-1610.324 -2380.524)" fill="none" stroke="#00afef" stroke-miterlimit="22.926" stroke-width="0.79" fill-rule="evenodd"/>
        <path id="Path_143" data-name="Path 143" d="M1831.07,2432.549v48.191c0,5.721-.99,9.4-5.2,11.568l-45.052,26.318c-3.944,2.3-7.132,2.621-11.934-.17l-42.853-25c-4.669-2.333-7.03-4.806-6.964-11.111l.1-51.454c0-5.05,1.671-7.744,6.348-10.468l43.747-25.5c4-2.325,7.242-2.518,12.1.3l42.377,24.878c5.652,3.256,7.257,5.53,7.33,12.439Zm-9.419,4.075v40.093c0,4.754-.821,7.818-4.325,9.619l-37.473,21.9c-3.277,1.9-5.93,2.178-9.925-.14l-35.647-20.8c-3.885-1.941-5.842-3.994-5.8-9.242l.088-42.8c0-4.2,1.385-6.445,5.278-8.7l36.388-21.217c3.328-1.934,6.026-2.089,10.072.259l35.252,20.692c4.7,2.709,6.025,4.6,6.092,10.343Z" transform="translate(-1625.365 -2355.005)" fill="#28b6cf" fill-rule="evenodd"/>
        <path id="Path_144" data-name="Path 144" d="M1652.631,2363.073v26.414c0,3.137-.542,5.153-2.852,6.341l-24.689,14.425c-2.162,1.255-3.914,1.439-6.546-.089l-23.486-13.7c-2.558-1.277-3.849-2.635-3.819-6.091l.058-28.208c0-2.768.917-4.245,3.475-5.736l23.977-13.975c2.192-1.277,3.973-1.38,6.634.17l23.23,13.635c3.1,1.779,3.98,3.027,4.017,6.814Zm-17.659,7.648v11.221c0,1.329-.235,2.185-1.21,2.687l-10.49,6.127a2.4,2.4,0,0,1-2.778-.037l-9.969-5.817a2.449,2.449,0,0,1-1.627-2.591l.022-11.974a2.459,2.459,0,0,1,1.481-2.436l10.182-5.935a2.434,2.434,0,0,1,2.822.066l9.859,5.8a2.715,2.715,0,0,1,1.708,2.894Z" transform="translate(-1591.239 -2341.479)" fill="#ffcc29" fill-rule="evenodd"/>
        <path id="Path_145" data-name="Path 145" d="M1808.617,2693.011v12.38c0,1.469-.256,2.414-1.334,2.968l-11.567,6.762a2.639,2.639,0,0,1-3.064-.044l-11-6.422a2.69,2.69,0,0,1-1.789-2.85l.022-13.221a2.725,2.725,0,0,1,1.627-2.687l11.237-6.548a2.688,2.688,0,0,1,3.108.074l10.878,6.393a3,3,0,0,1,1.884,3.2Z" transform="translate(-1641.594 -2430.852)" fill="#c5d424" fill-rule="evenodd"/>
      </g>
      <g id="Group_78" data-name="Group 78" transform="translate(290.941)">
        <path id="Path_137" data-name="Path 137" d="M173.3,2337.212v63.221c0,7.5-1.3,12.328-6.817,15.17L107.4,2450.138c-5.168,3-9.346,3.44-15.643-.221l-56.194-32.8c-6.128-3.056-9.214-6.3-9.134-14.572l.125-67.5c0-6.622,2.192-10.158,8.327-13.724l57.36-33.456c5.249-3.056,9.507-3.307,15.878.406L163.69,2320.9c7.411,4.267,9.515,7.25,9.61,16.315Z" transform="translate(-22.528 -2285.526)" fill="none" stroke="rgba(235,35,100,0.6)" stroke-miterlimit="22.926" stroke-width="1.99" stroke-dasharray="5.96 5.96" fill-rule="evenodd"/>
        <path id="Path_138" data-name="Path 138" d="M164,2349.441v50.635c0,6.009-1.041,9.877-5.454,12.151l-47.317,27.654c-4.142,2.406-7.492,2.754-12.535-.177l-45-26.266c-4.911-2.451-7.382-5.042-7.323-11.671l.1-54.06c0-5.308,1.759-8.142,6.671-11l45.939-26.79c4.208-2.444,7.609-2.65,12.718.325l44.5,26.133c5.938,3.418,7.624,5.8,7.7,13.066Z" transform="translate(-27.852 -2291.421)" fill="#eb2364" fill-rule="evenodd"/>
        <path id="Path_139" data-name="Path 139" d="M122.73,2483.033v43.725c0,5.19-.9,8.527-4.713,10.5l-40.881,23.882c-3.577,2.074-6.465,2.377-10.827-.155L27.428,2538.3c-4.237-2.112-6.377-4.355-6.319-10.077l.088-46.685c0-4.584,1.517-7.028,5.762-9.493L66.646,2448.9c3.636-2.111,6.575-2.281,10.988.281l38.448,22.575c5.131,2.946,6.583,5.005,6.649,11.28Z" transform="translate(-21.108 -2327.871)" fill="#dc6728" fill-rule="evenodd"/>
        <path id="Path_140" data-name="Path 140" d="M365.295,2499.471v57.677c0,6.844-1.18,11.25-6.216,13.842l-53.915,31.5c-4.721,2.739-8.533,3.137-14.279-.207L239.6,2572.371c-5.593-2.791-8.408-5.751-8.342-13.3l.125-61.582c0-6.039,1.994-9.265,7.594-12.52l52.346-30.518c4.794-2.783,8.672-3.019,14.492.369l50.711,29.772c6.766,3.891,8.679,6.607,8.767,14.875ZM334.984,2512.6v31.588c0,3.75-.645,6.165-3.4,7.582l-29.534,17.252c-2.58,1.506-4.677,1.72-7.821-.11l-28.083-16.381c-3.064-1.528-4.611-3.152-4.574-7.286l.066-33.722c0-3.307,1.1-5.079,4.164-6.858l28.669-16.721c2.624-1.521,4.75-1.646,7.939.207l27.775,16.3c3.709,2.133,4.757,3.624,4.8,8.15Z" transform="translate(-108.709 -2309.514)" fill="#21d7ce" fill-rule="evenodd"/>
        <path id="Path_141" data-name="Path 141" d="M277.585,2702.025v20.4c0,2.421-.418,3.979-2.2,4.895l-19.066,11.14a4.36,4.36,0,0,1-5.051-.074L233.134,2727.8c-1.979-.99-2.976-2.03-2.954-4.7l.044-21.778c0-2.141.711-3.278,2.69-4.429l18.509-10.793c1.693-.989,3.071-1.07,5.124.125l17.937,10.534c2.4,1.373,3.071,2.333,3.1,5.263Z" transform="translate(-76.923 -2390.189)" fill="#1ed8d2" fill-rule="evenodd"/>
      </g>
    </g>
  </g>
</svg>
