<svg id="_2591192161248" xmlns="http://www.w3.org/2000/svg" width="205.705" height="284.736" viewBox="0 0 205.705 284.736">
  <path id="Path_142" data-name="Path 142" d="M1746.611,2520.137v36.092c0,4.282-.74,7.043-3.892,8.659l-33.742,19.718c-2.954,1.713-5.344,1.964-8.936-.133l-32.092-18.721c-3.5-1.742-5.263-3.6-5.219-8.32l.073-38.535c0-3.78,1.253-5.8,4.757-7.833l32.759-19.1c3-1.742,5.424-1.89,9.068.229l31.733,18.633C1745.357,2513.264,1746.552,2514.962,1746.611,2520.137Z" transform="translate(-1610.324 -2380.524)" fill="none" stroke="#00afef" stroke-miterlimit="22.926" stroke-width="0.79" fill-rule="evenodd"/>
  <path id="Path_143" data-name="Path 143" d="M1831.07,2432.549v48.191c0,5.721-.99,9.4-5.2,11.568l-45.052,26.318c-3.944,2.3-7.132,2.621-11.934-.17l-42.853-25c-4.669-2.333-7.03-4.806-6.964-11.111l.1-51.454c0-5.05,1.671-7.744,6.348-10.468l43.747-25.5c4-2.325,7.242-2.518,12.1.3l42.377,24.878c5.652,3.256,7.257,5.53,7.33,12.439Zm-9.419,4.075v40.093c0,4.754-.821,7.818-4.325,9.619l-37.473,21.9c-3.277,1.9-5.93,2.178-9.925-.14l-35.647-20.8c-3.885-1.941-5.842-3.994-5.8-9.242l.088-42.8c0-4.2,1.385-6.445,5.278-8.7l36.388-21.217c3.328-1.934,6.026-2.089,10.072.259l35.252,20.692c4.7,2.709,6.025,4.6,6.092,10.343Z" transform="translate(-1625.365 -2355.005)" fill="#28b6cf" fill-rule="evenodd"/>
  <path id="Path_144" data-name="Path 144" d="M1652.631,2363.073v26.414c0,3.137-.542,5.153-2.852,6.341l-24.689,14.425c-2.162,1.255-3.914,1.439-6.546-.089l-23.486-13.7c-2.558-1.277-3.849-2.635-3.819-6.091l.058-28.208c0-2.768.917-4.245,3.475-5.736l23.977-13.975c2.192-1.277,3.973-1.38,6.634.17l23.23,13.635c3.1,1.779,3.98,3.027,4.017,6.814Zm-17.659,7.648v11.221c0,1.329-.235,2.185-1.21,2.687l-10.49,6.127a2.4,2.4,0,0,1-2.778-.037l-9.969-5.817a2.449,2.449,0,0,1-1.627-2.591l.022-11.974a2.459,2.459,0,0,1,1.481-2.436l10.182-5.935a2.434,2.434,0,0,1,2.822.066l9.859,5.8a2.715,2.715,0,0,1,1.708,2.894Z" transform="translate(-1591.239 -2341.479)" fill="#ffcc29" fill-rule="evenodd"/>
  <path id="Path_145" data-name="Path 145" d="M1808.617,2693.011v12.38c0,1.469-.256,2.414-1.334,2.968l-11.567,6.762a2.639,2.639,0,0,1-3.064-.044l-11-6.422a2.69,2.69,0,0,1-1.789-2.85l.022-13.221a2.725,2.725,0,0,1,1.627-2.687l11.237-6.548a2.688,2.688,0,0,1,3.108.074l10.878,6.393a3,3,0,0,1,1.884,3.2Z" transform="translate(-1641.594 -2430.852)" fill="#c5d424" fill-rule="evenodd"/>
</svg>
