<svg xmlns="http://www.w3.org/2000/svg" width="256.586" height="349.818" viewBox="0 0 256.586 349.818">
  <g id="Group_78" data-name="Group 78" transform="translate(0 0.783)">
    <path id="Path_137" data-name="Path 137" d="M173.3,2337.212v63.221c0,7.5-1.3,12.328-6.817,15.17L107.4,2450.138c-5.168,3-9.346,3.44-15.643-.221l-56.194-32.8c-6.128-3.056-9.214-6.3-9.134-14.572l.125-67.5c0-6.622,2.192-10.158,8.327-13.724l57.36-33.456c5.249-3.056,9.507-3.307,15.878.406L163.69,2320.9c7.411,4.267,9.515,7.25,9.61,16.315Z" transform="translate(-22.528 -2285.526)" fill="none" stroke="rgba(235,35,100,0.6)" stroke-miterlimit="22.926" stroke-width="1.99" stroke-dasharray="5.96 5.96" fill-rule="evenodd"/>
    <path id="Path_138" data-name="Path 138" d="M164,2349.441v50.635c0,6.009-1.041,9.877-5.454,12.151l-47.317,27.654c-4.142,2.406-7.492,2.754-12.535-.177l-45-26.266c-4.911-2.451-7.382-5.042-7.323-11.671l.1-54.06c0-5.308,1.759-8.142,6.671-11l45.939-26.79c4.208-2.444,7.609-2.65,12.718.325l44.5,26.133c5.938,3.418,7.624,5.8,7.7,13.066Z" transform="translate(-27.852 -2291.421)" fill="#eb2364" fill-rule="evenodd"/>
    <path id="Path_139" data-name="Path 139" d="M122.73,2483.033v43.725c0,5.19-.9,8.527-4.713,10.5l-40.881,23.882c-3.577,2.074-6.465,2.377-10.827-.155L27.428,2538.3c-4.237-2.112-6.377-4.355-6.319-10.077l.088-46.685c0-4.584,1.517-7.028,5.762-9.493L66.646,2448.9c3.636-2.111,6.575-2.281,10.988.281l38.448,22.575c5.131,2.946,6.583,5.005,6.649,11.28Z" transform="translate(-21.108 -2327.871)" fill="#dc6728" fill-rule="evenodd"/>
    <path id="Path_140" data-name="Path 140" d="M365.295,2499.471v57.677c0,6.844-1.18,11.25-6.216,13.842l-53.915,31.5c-4.721,2.739-8.533,3.137-14.279-.207L239.6,2572.371c-5.593-2.791-8.408-5.751-8.342-13.3l.125-61.582c0-6.039,1.994-9.265,7.594-12.52l52.346-30.518c4.794-2.783,8.672-3.019,14.492.369l50.711,29.772c6.766,3.891,8.679,6.607,8.767,14.875ZM334.984,2512.6v31.588c0,3.75-.645,6.165-3.4,7.582l-29.534,17.252c-2.58,1.506-4.677,1.72-7.821-.11l-28.083-16.381c-3.064-1.528-4.611-3.152-4.574-7.286l.066-33.722c0-3.307,1.1-5.079,4.164-6.858l28.669-16.721c2.624-1.521,4.75-1.646,7.939.207l27.775,16.3c3.709,2.133,4.757,3.624,4.8,8.15Z" transform="translate(-108.709 -2309.514)" fill="#21d7ce" fill-rule="evenodd"/>
    <path id="Path_141" data-name="Path 141" d="M277.585,2702.025v20.4c0,2.421-.418,3.979-2.2,4.895l-19.066,11.14a4.36,4.36,0,0,1-5.051-.074L233.134,2727.8c-1.979-.99-2.976-2.03-2.954-4.7l.044-21.778c0-2.141.711-3.278,2.69-4.429l18.509-10.793c1.693-.989,3.071-1.07,5.124.125l17.937,10.534c2.4,1.373,3.071,2.333,3.1,5.263Z" transform="translate(-76.923 -2390.189)" fill="#1ed8d2" fill-rule="evenodd"/>
  </g>
</svg>
