<svg width="2466" height="2806" viewBox="0 0 2466 2806" fill="none" xmlns="http://www.w3.org/2000/svg">
<path d="M6.56563 689.96C12.0403 605.333 63.1443 530.374 139.744 493.987L1132.17 22.64C1195.73 -7.54665 1269.49 -7.54665 1333.05 22.64L2325.49 493.987C2402.09 530.374 2453.2 605.333 2458.67 689.96C2551.76 2128.91 1629.12 2653.2 1326.68 2785.64C1266.69 2811.91 1198.55 2811.91 1138.56 2785.64C836.108 2653.2 -86.525 2128.91 6.56563 689.96" fill="url(#paint0_linear)"/>
<path d="M1532.81 218.453C1531.19 218.453 1529.53 218.106 1527.97 217.36L1293.48 105.986C1287.83 103.306 1285.43 96.5596 1288.11 90.9063C1290.79 85.2663 1297.55 82.8531 1303.19 85.5331L1537.68 196.906C1543.32 199.586 1545.73 206.346 1543.04 211.986C1541.11 216.066 1537.05 218.453 1532.81 218.453Z" fill="#91B3FA"/>
<path d="M2382.78 995.12C2382.66 995.12 2382.52 995.12 2382.39 995.12C2376.15 994.907 2371.26 989.68 2371.46 983.427C2374.58 890.68 2372.93 793.947 2366.6 695.907C2363.29 644.84 2332.38 599.4 2285.91 577.333L1618.3 260.253C1612.64 257.573 1610.24 250.827 1612.92 245.173C1615.6 239.52 1622.35 237.12 1628 239.8L2295.61 556.88C2349.49 582.467 2385.35 635.187 2389.19 694.453C2395.58 793.213 2397.21 890.707 2394.08 984.187C2393.88 990.307 2388.86 995.12 2382.78 995.12" fill="#91B3FA"/>
<path d="M246.562 746.12C247.655 724.667 260.428 705.52 279.828 696.294L1207.59 255.667C1223.43 248.147 1241.82 248.147 1257.66 255.667L2185.4 696.294C2204.81 705.52 2217.59 724.667 2218.68 746.12C2246.11 1282.89 2122.14 1730.76 1849.91 2077.88C1642.36 2342.53 1399.58 2484.36 1257.31 2550.52C1241.64 2557.81 1223.6 2557.81 1207.92 2550.52C1065.66 2484.36 822.868 2342.53 615.322 2077.88C343.108 1730.76 219.122 1282.88 246.562 746.12" fill="url(#paint1_linear)"/>
<path d="M1506.94 1322.83H1599.39V954.346C1599.39 809.613 1491.06 687.32 1347.39 669.853L1158.32 646.88C1076.96 636.986 995.095 662.493 933.722 716.839C872.362 771.199 837.162 849.399 837.162 931.373V1253.05H929.629V931.373C929.629 875.839 953.469 822.88 995.042 786.066C1036.6 749.24 1092.06 731.96 1147.18 738.666L1336.23 761.639C1433.55 773.466 1506.94 856.32 1506.94 954.346V1322.83" fill="url(#paint2_linear)"/>
<path d="M1626.74 1240.09L816.188 1195.19C783.268 1193.37 755.575 1219.57 755.575 1252.55V1894.67C755.575 1926.39 781.282 1952.11 813.015 1952.11H1604.08C1635.07 1952.11 1660.47 1927.51 1661.48 1896.53L1680.96 1299.32C1681.98 1268.12 1657.9 1241.83 1626.74 1240.09" fill="url(#paint3_linear)"/>
<path d="M1086.15 1768.15L1135.2 1627.11C1141.1 1610.15 1137.08 1591.19 1124.47 1578.41C1099.34 1552.95 1084.35 1517.41 1086.12 1478.41C1089.26 1409.61 1145.46 1353.83 1214.28 1351.17C1290.44 1348.25 1353.1 1409.13 1353.1 1484.64C1353.1 1526.53 1333.8 1563.89 1303.63 1588.37C1287.98 1601.08 1281.54 1621.95 1288.16 1640.99L1332.39 1768.15C1343.15 1799.08 1320.19 1831.39 1287.44 1831.39H1131.1C1098.35 1831.39 1075.39 1799.08 1086.15 1768.15" fill="url(#paint4_linear)"/>
<defs>
<linearGradient id="paint0_linear" x1="2673.68" y1="-1931.55" x2="2302.45" y2="-1161.92" gradientUnits="userSpaceOnUse">
<stop stop-color="#09005D"/>
<stop offset="1" stop-color="#1A0F91"/>
</linearGradient>
<linearGradient id="paint1_linear" x1="1665.39" y1="-23.8796" x2="797.119" y2="2107.33" gradientUnits="userSpaceOnUse">
<stop stop-color="#4F52FF"/>
<stop offset="1" stop-color="#4042E2"/>
</linearGradient>
<linearGradient id="paint2_linear" x1="1252.4" y1="760.946" x2="1152.7" y2="1811.18" gradientUnits="userSpaceOnUse">
<stop stop-color="#FF928E"/>
<stop offset="1" stop-color="#FE7062"/>
</linearGradient>
<linearGradient id="paint3_linear" x1="1277.4" y1="1057.13" x2="938.623" y2="3597.97" gradientUnits="userSpaceOnUse">
<stop stop-color="#FF928E"/>
<stop offset="1" stop-color="#FE7062"/>
</linearGradient>
<linearGradient id="paint4_linear" x1="1072.66" y1="1428.96" x2="1351.84" y2="1794.52" gradientUnits="userSpaceOnUse">
<stop stop-color="#E1473D"/>
<stop offset="1" stop-color="#E9605A"/>
</linearGradient>
</defs>
</svg>
